<svg xmlns="http://www.w3.org/2000/svg" xmlns:xlink="http://www.w3.org/1999/xlink" viewBox="0 0 996 330" style="enable-background:new 0 0 996 330;" xml:space="preserve"><path d="M310.1,89c-1.7-12.6-8.7-23.4-21.4-33.3l-7.3-4.9l-4.9,7.3c-6.2,9.4-9.4,22.5-8.4,35c0.5,4.4,1.9,12.3,6.4,19.2c-4.5,2.4-13.4,5.8-25.3,5.6h-227l-0.4,2.6c-2.1,12.6-2.1,51.8,23.4,82c19.4,22.9,48.4,34.6,86.4,34.6c82.2,0,143-37.8,171.5-106.6c11.2,0.2,35.3,0.1,47.7-23.6c0.3-0.5,1.1-2,3.2-6.4l1.2-2.5l-7-4.7C340.7,88.3,323.4,86.5,310.1,89L310.1,89z M203.8,5h-34.5v31.4h34.5V5z M203.8,42.7h-34.5V74h34.5V42.7z M163,42.7h-34.5V74H163V42.7z M122.2,42.7H87.7V74h34.5V42.7z M81.4,80.3H46.9v31.4h34.5V80.3z M122.2,80.3H87.7v31.4h34.5V80.3z M163,80.3h-34.5v31.4H163V80.3z M203.8,80.3h-34.5v31.4h34.5V80.3z M244.6,80.3h-34.5v31.4h34.5V80.3z M454.3,73.3c-2.5,0-4.6,0.8-6.3,2.5s-2.5,3.8-2.5,6.3v42.5c-8.5-7-18.4-10.5-29.6-10.5c-13,0-24.2,4.7-33.4,14s-13.8,20.5-13.8,33.7s4.6,24.4,13.8,33.7s20.3,13.9,33.4,13.9c12.9,0,24-4.6,33.4-13.9c9.2-9.2,13.8-20.4,13.8-33.7V82.1c0-2.6-0.9-4.7-2.6-6.3C458.9,74.1,456.8,73.3,454.3,73.3L454.3,73.3z M443.2,173.3c-1.5,3.6-3.6,6.8-6.3,9.5s-5.8,4.9-9.4,6.5s-7.4,2.4-11.5,2.4c-4.2,0-8-0.8-11.6-2.4s-6.7-3.7-9.4-6.4s-4.7-5.9-6.3-9.5c-1.5-3.6-2.3-7.5-2.3-11.6s0.8-7.9,2.3-11.6c1.5-3.6,3.6-6.8,6.3-9.5c2.6-2.7,5.8-4.8,9.4-6.4s7.5-2.4,11.6-2.4s8,0.8,11.5,2.4c3.6,1.6,6.7,3.7,9.4,6.5c2.7,2.7,4.8,5.9,6.3,9.5s2.3,7.4,2.3,11.5C445.5,165.8,444.8,169.7,443.2,173.3z M840,128.1c-9.3-9.3-20.5-13.9-33.4-13.9c-13,0-24.2,4.7-33.4,13.9s-13.8,20.5-13.8,33.7s4.6,24.4,13.8,33.7s20.3,13.9,33.4,13.9c11.8,0,22.1-3.9,30.8-11.6c1.7-1.8,2.5-3.9,2.5-6.4c0-2.6-0.8-4.7-2.5-6.3s-3.8-2.5-6.3-2.5c-2.2,0.1-4.1,0.8-5.8,2.2c-2.6,2.3-5.5,4-8.6,5.1s-6.5,1.7-10.2,1.7c-3.3,0-6.4-0.5-9.4-1.5s-5.8-2.4-8.3-4.3c-2.5-1.8-4.7-4.1-6.5-6.6c-1.8-2.6-3.3-5.4-4.2-8.6h66.7c2.5,0,4.6-0.8,6.3-2.5s2.6-3.8,2.6-6.3c0-6.6-1.2-12.7-3.5-18.3C848,137.8,844.6,132.6,840,128.1L840,128.1z M778.2,152.9c0.9-3.1,2.3-6,4.1-8.6s4-4.8,6.6-6.6c2.5-1.8,5.3-3.3,8.3-4.3s6.2-1.5,9.3-1.5c3.2,0,6.3,0.5,9.3,1.5s5.8,2.4,8.3,4.3c2.5,1.8,4.7,4.1,6.6,6.6s3.3,5.4,4.3,8.6H778.2z M932.4,120.1c-1.6-1.5-3.5-2.7-5.9-3.6s-5-1.5-7.8-1.8s-5.5-0.5-8-0.5c-5.6,0-10.9,0.9-15.8,2.7s-9.5,4.4-13.7,7.8V123c0-2.4-0.9-4.5-2.6-6.2s-3.8-2.6-6.2-2.6c-2.5,0-4.6,0.9-6.3,2.6s-2.6,3.8-2.6,6.2v77.6c0,2.4,0.9,4.5,2.6,6.2s3.8,2.6,6.3,2.6c2.4,0,4.5-0.9,6.2-2.6s2.6-3.8,2.6-6.2v-38.8c0-4.1,0.8-8,2.3-11.7c1.5-3.6,3.7-6.8,6.3-9.5c2.7-2.7,5.8-4.8,9.4-6.4s7.4-2.3,11.5-2.3c4.2,0,8,0.7,11.5,2.1c1.4,0.6,2.6,0.9,3.7,0.9c1.2,0,2.4-0.2,3.5-0.7s2-1.1,2.8-1.9s1.4-1.8,1.9-2.9s0.7-2.2,0.7-3.5C934.8,123.6,934,121.6,932.4,120.1L932.4,120.1z M553.7,128.1c-9.3-9.3-20.5-13.9-33.4-13.9c-13,0-24.2,4.7-33.4,13.9s-13.8,20.5-13.8,33.7s4.6,24.4,13.8,33.7s20.3,13.9,33.4,13.9c12.9,0,24-4.6,33.4-13.9c9.2-9.2,13.8-20.4,13.8-33.7c-0.1-6.6-1.2-12.7-3.5-18.3C561.8,137.8,558.3,132.7,553.7,128.1z M547.6,173.3c-1.5,3.6-3.7,6.8-6.3,9.5c-2.7,2.7-5.8,4.9-9.4,6.5s-7.4,2.4-11.5,2.4c-4.2,0-8-0.8-11.6-2.4s-6.7-3.7-9.4-6.4s-4.7-5.9-6.3-9.5c-1.5-3.6-2.3-7.5-2.3-11.6s0.8-7.9,2.3-11.6c1.5-3.6,3.6-6.8,6.3-9.5c2.6-2.7,5.8-4.8,9.4-6.4s7.5-2.4,11.6-2.4s8,0.8,11.5,2.4c3.6,1.6,6.7,3.7,9.4,6.5c2.7,2.7,4.8,5.9,6.3,9.5s2.3,7.4,2.3,11.5C549.9,165.8,549.2,169.7,547.6,173.3z M749.9,122.9c0-1.2-0.2-2.3-0.7-3.4s-1.1-2-1.9-2.8s-1.7-1.5-2.8-1.9s-2.2-0.7-3.5-0.7c-1.7,0-3.3,0.4-4.7,1.4l-50.4,33.1V82.2c0-2.5-0.9-4.6-2.6-6.3s-3.8-2.6-6.2-2.6c-2.5,0-4.6,0.9-6.3,2.6s-2.6,3.8-2.6,6.3v118.3c0,2.4,0.9,4.5,2.6,6.3s3.8,2.6,6.3,2.6c2.4,0,4.5-0.9,6.2-2.6s2.6-3.9,2.6-6.3v-30.7l10.3-6.8l38.9,44.2c1.6,1.5,3.5,2.3,5.9,2.3c1.2,0,2.4-0.2,3.5-0.7c1.1-0.4,2-1.1,2.8-1.9s1.4-1.8,1.9-2.9s0.7-2.2,0.7-3.4c0-2.3-0.8-4.4-2.4-6.2l-36.2-41.2l35.3-23.1C748.8,128.5,749.9,126.1,749.9,122.9L749.9,122.9z M603.6,140.6c2.7-2.7,5.8-4.8,9.4-6.4s7.4-2.3,11.5-2.3c3.7,0,7.1,0.6,10.3,1.9s6.2,3.1,9,5.5c1.7,1.4,3.6,2,5.7,2c2.5,0,4.6-0.9,6.3-2.6s2.5-3.8,2.5-6.4c0-2.7-1-4.9-3-6.7c-8.7-7.7-18.9-11.6-30.8-11.6c-13,0-24.2,4.7-33.4,14s-13.8,20.5-13.8,33.7s4.6,24.4,13.8,33.7s20.3,13.9,33.4,13.9c11.8,0,22-3.9,30.8-11.6c1.8-1.9,2.8-4.1,2.8-6.6c0-2.6-0.8-4.7-2.5-6.3s-3.8-2.5-6.3-2.5c-2.1,0.1-4,0.7-5.6,1.9c-2.8,2.4-5.8,4.3-8.9,5.5c-3.2,1.2-6.6,1.8-10.3,1.8c-4.1,0-8-0.8-11.5-2.3c-3.6-1.6-6.7-3.7-9.4-6.4s-4.8-5.9-6.4-9.5s-2.3-7.5-2.3-11.7s0.8-8,2.3-11.7C598.8,146.5,600.9,143.3,603.6,140.6L603.6,140.6z"></path></svg>