<svg width="442" height="448" viewBox="0 0 442 448" xmlns="http://www.w3.org/2000/svg"><path d="M200.644 247.937c22.056 0 40-17.943 40-40h40c0 44.112-35.888 80-80 80s-80-35.888-80-80h40c0 22.057 17.945 40 40 40zm160-200c-22.057 0-40 17.943-40 40s17.943 40 40 40c22.056 0 40-17.943 40-40s-17.944-40-40-40zm0 120c-44.183 0-80-35.816-80-80s35.817-80 80-80 80 35.816 80 80-35.817 80-80 80zm-280-80c-22.056 0-40 17.944-40 40h-40c0-44.111 35.889-80 80-80 44.112 0 80 35.889 80 80h-40c0-22.056-17.944-40-40-40zm160 323.459c88.226 0 160-71.775 160-160h40c0 110.279-89.72 200-200 200v-40z" fill="#F70776" fill-rule="evenodd"></path></svg>