<?xml version="1.0" standalone="no"?>
<!DOCTYPE svg PUBLIC "-//W3C//DTD SVG 1.1//EN" "http://www.w3.org/Graphics/SVG/1.1/DTD/svg11.dtd" >
<svg>
<metadata>
Created by FontForge 20090914 at Thu Feb 23 22:44:05 2012
 By root
Copyright (c) Derek Vogelpohl, 2001. All rights reserved.
</metadata>
<defs>
<font id="CovingtonSCExp-BoldItalic" horiz-adv-x="1106" >
  <font-face 
    font-family="Covington SC Exp"
    font-weight="700"
    font-style="italic"
    font-stretch="normal"
    units-per-em="2048"
    panose-1="2 0 8 6 0 0 0 9 0 4"
    ascent="1638"
    descent="-410"
    x-height="1290"
    cap-height="1434"
    bbox="-143 -385 2840.38 1755"
    underline-thickness="20"
    underline-position="-123"
    slope="-12"
    unicode-range="U+0020-U+2212"
  />
<missing-glyph horiz-adv-x="1024" 
 />
    <glyph glyph-name=".notdef" horiz-adv-x="1024" 
 />
    <glyph glyph-name=".null" horiz-adv-x="0" 
 />
    <glyph glyph-name="nonmarkingreturn" horiz-adv-x="1024" 
 />
    <glyph glyph-name="space" unicode=" " horiz-adv-x="920" 
 />
    <glyph glyph-name="exclam" unicode="!" horiz-adv-x="639" 
d="M498 125q-6 -26 -20.5 -49t-35.5 -40t-47.5 -26.5t-54.5 -9.5q-27 0 -48 9.5t-34.5 26.5t-18.5 40t1 49q5 26 19.5 49t35.5 40t46 26.5t52 9.5q28 0 50 -9.5t36 -26.5t19 -40t0 -49zM733 1323l-241 -975h-154l174 975h-76l25 111h368l-22 -111h-74z" />
    <glyph glyph-name="quotedbl" unicode="&#x22;" horiz-adv-x="813" 
d="M532 1010h-96l29 430h240zM829 1010h-92l29 430h238z" />
    <glyph glyph-name="numbersign" unicode="#" horiz-adv-x="1270" 
d="M727 793h184l52 161h-187zM1034 649l-67 -205h-164l67 205h-190l-62 -205h-165l65 205h-213l31 144h227l49 161h-243l30 144h256l68 207h164l-68 -207h189l65 207h164l-68 -207h211l-30 -144h-226l-49 -161h240l-31 -144h-250z" />
    <glyph glyph-name="dollar" unicode="$" 
d="M596 78h12l101 469l-27 28l-104 -497h8h10zM852 1366l-100 -471l22 -31l107 502h-9h-10h-10zM580 1182q-8 -31 -1 -57t27 -48l78 -98l80 369q-34 -10 -60.5 -23t-48.5 -29h2q-31 -26 -51 -54t-26 -60zM881 262q12 59 -29 103l-78 98l-80 -371q32 11 59.5 24t49.5 31h-4
q65 50 82 115zM1219 1106q-6 -26 -21.5 -49t-38 -40t-50 -26.5t-56.5 -9.5t-52.5 9.5t-38.5 26.5t-21 40t-1 49q5 23 19 44t34 37.5t44 28t50 15.5q-33 83 -124 117l-121 -566l157 -192q87 -105 54 -254q-26 -130 -142 -234v2q-52 -51 -113.5 -83t-127.5 -46l-33 -151h-84
l31 139h-17h-14l-31 -139h-84l33 151q-65 14 -111.5 45t-80.5 80q-35 51 -44.5 111t3.5 125q5 27 21 50t38.5 40.5t50.5 27t58 9.5q27 0 50 -9.5t38.5 -27t22 -40.5t1.5 -50q-5 -24 -19.5 -45t-35 -37.5t-44.5 -27.5t-48 -15q31 -87 125 -119l120 565l-157 195
q-87 108 -53 252q12 65 46.5 123t90.5 112q55 48 115.5 80.5t129.5 46.5l33 150h84l-31 -139h15q5 0 8 -1t8 -1l31 141h84l-33 -150q63 -14 110 -46.5t81 -80.5q71 -101 41 -233z" />
    <glyph glyph-name="percent" unicode="%" horiz-adv-x="1927" 
d="M1024 1206q6 31 -2.5 58.5t-28 48.5t-48.5 33t-64 12q-36 0 -70.5 -12t-62.5 -33t-47.5 -48.5t-26.5 -58.5l-60 -280q-7 -31 1.5 -58.5t28 -48.5t49 -33t65.5 -12q35 0 69 12t62.5 33t48.5 48.5t27 58.5zM1667 508q6 32 -2 60t-26.5 49t-47.5 33t-65 12q-37 0 -71.5 -12
t-62.5 -33t-47 -49t-26 -60l-59 -279q-7 -31 0.5 -58.5t27 -48t48.5 -32.5t65 -12t70 12t62 32.5t48 48t27 58.5zM401 0h-260l1735 1436h260zM1878 336q-17 -78 -62.5 -142.5t-117.5 -119.5q-76 -56 -154.5 -82.5t-165.5 -26.5q-86 0 -155 26.5t-121 82.5q-51 55 -67 119.5
t1 142.5l15 70q15 75 58 139.5t118 118.5q151 110 323 110q87 0 154 -27.5t121 -82.5q48 -54 65.5 -118.5t1.5 -139.5zM1229 1032q-31 -151 -178 -262q-75 -56 -154 -82t-164 -26q-88 0 -156 26t-120 82q-99 111 -66 262l17 68q15 77 58 140.5t116 119.5q149 110 325 110
q171 0 269 -110q51 -56 68.5 -119.5t0.5 -140.5z" />
    <glyph glyph-name="ampersand" unicode="&#x26;" horiz-adv-x="1145" 
d="M598 78q48 0 93.5 11t88.5 36l129 612h-172q-35 0 -68.5 -12.5t-61 -33.5t-47 -49.5t-25.5 -59.5l-76 -351q-7 -32 1 -59.5t27 -48.5t47.5 -33t63.5 -12zM1083 -385q-85 0 -150 27t-116 84q-49 55 -65.5 118.5t0.5 141.5l4 20q-48 -22 -92 -32.5t-89 -10.5
q-85 0 -151 28.5t-117 84.5q-48 56 -64.5 120.5t-0.5 139.5l30 141q10 48 33 93.5t57 86t77 75.5t93 61q-39 24 -67.5 58t-45 74.5t-20 87t6.5 95.5q30 148 176 260q74 54 151 82.5t162 28.5q87 0 154 -27t112 -80l15 70h124l-75 -357h-125q14 63 2.5 114.5t-45.5 88.5
q-34 38 -79.5 58t-105.5 20q-35 0 -68.5 -12.5t-61.5 -33.5t-47.5 -49.5t-26.5 -60.5l-45 -209q-6 -31 2 -59t27 -49t48 -33t64 -12h489l-26 -111h-76l-182 -856q-6 -32 3.5 -59.5t31.5 -48.5t55.5 -33t75.5 -12l-21 -93z" />
    <glyph glyph-name="quotesingle" unicode="'" horiz-adv-x="459" 
d="M498 1010h-86l39 430h211z" />
    <glyph glyph-name="parenleft" unicode="(" horiz-adv-x="616" 
d="M383 -182q-54 108 -83 205.5t-40 187.5q-21 181 31 422q25 121 62 225t85 195q50 89 121.5 188t171.5 205l74 -55q-84 -106 -143 -199.5t-97 -173.5q-38 -84 -70 -179t-55 -206q-24 -113 -34 -208.5t-7 -178.5q7 -82 26 -175t56 -198z" />
    <glyph glyph-name="parenright" unicode=")" horiz-adv-x="616" 
d="M637 633q-26 -122 -62.5 -226.5t-82.5 -195.5q-50 -90 -123.5 -187.5t-173.5 -205.5l-72 55q78 105 139 197t98 176q77 164 125 387q25 111 34.5 207t4.5 178q-2 81 -22.5 174t-55.5 199l97 55q54 -106 85 -205t42 -188q9 -91 0.5 -195t-33.5 -225z" />
    <glyph glyph-name="asterisk" unicode="*" horiz-adv-x="983" 
d="M952 737l-180 101l-41 -201h-160l41 201l-217 -101l-57 123l223 101l-180 100l108 121l177 -101l43 201h157l-43 -201l221 101l52 -121l-217 -100l174 -101z" />
    <glyph glyph-name="plus" unicode="+" horiz-adv-x="897" 
d="M645 449l-41 -199h-158l41 199h-227l31 139h227l41 198h158l-41 -198h227l-31 -139h-227z" />
    <glyph glyph-name="comma" unicode="," horiz-adv-x="459" 
d="M242 -195h-86l37 431h213z" />
    <glyph glyph-name="hyphen" unicode="-" horiz-adv-x="897" 
d="M238 346l24 107h612l-22 -107h-614z" />
    <glyph glyph-name="hyphen" unicode="&#xad;" horiz-adv-x="897" 
d="M238 346l24 107h612l-22 -107h-614z" />
    <glyph glyph-name="period" unicode="." horiz-adv-x="504" 
d="M420 106q-5 -21 -19 -40.5t-34 -34t-44 -23t-49 -8.5q-26 0 -46 8.5t-33 23t-18.5 34t-0.5 40.5q4 22 17.5 42t33 35t44 23.5t51.5 8.5q24 0 44 -8.5t33.5 -23.5t19 -35t1.5 -42z" />
    <glyph glyph-name="slash" unicode="/" horiz-adv-x="993" 
d="M227 -141l-135 51l983 1493l137 -51z" />
    <glyph glyph-name="zero" unicode="0" 
d="M1001 1206q7 31 -1 58.5t-27 48.5t-47 33t-62 12q-35 0 -68 -12t-60.5 -33t-46.5 -48.5t-25 -58.5l-209 -977q-7 -31 0.5 -58.5t26.5 -48t47 -32.5t63 -12q34 0 67 12t61 32.5t48 48t27 58.5zM1055 336q-16 -78 -60.5 -142.5t-115.5 -119.5q-73 -56 -150 -82.5
t-162 -26.5t-150.5 26.5t-113.5 82.5q-51 55 -66 119.5t1 142.5l163 764q16 77 59 140.5t115 119.5q144 110 314 110q167 0 262 -110q98 -109 68 -260z" />
    <glyph glyph-name="one" unicode="1" horiz-adv-x="1038" 
d="M428 0l23 111h71l258 1212h-71l24 111h295l-280 -1323h73l-24 -111h-369z" />
    <glyph glyph-name="two" unicode="2" 
d="M166 0q64 310 293 557q46 50 143.5 136l249.5 214q99 84 154.5 151t66.5 118q18 76 -51 133q-31 24 -72 36.5t-86 12.5q-59 0 -113 -19.5t-102 -56.5q-51 -37 -83 -88.5t-48 -114.5h-123l76 357h123l-14 -70q68 53 143.5 77.5t163.5 24.5q85 0 150.5 -26t113.5 -82
q99 -111 66 -262q-31 -145 -224 -326l-86.5 -77l-87.5 -77l-84.5 -76.5l-83.5 -76.5q-90 -88 -144.5 -176.5t-76.5 -177.5h453l14 69h125l-39 -180h-817z" />
    <glyph glyph-name="three" unicode="3" 
d="M1055 336q-16 -78 -60 -141t-116 -119q-73 -56 -150 -83.5t-162 -27.5q-88 0 -152.5 26t-111.5 77l-14 -68h-123l76 354h123q-22 -123 45 -202h-2q32 -38 78.5 -56t105.5 -18q34 0 67 12t61 32.5t48 48t27 58.5l73 351q6 31 -1.5 58.5t-26 48t-47 32.5t-62.5 12h-119
l25 113h117q34 0 67.5 12t61 32t47 47.5t26.5 59.5l45 211q7 31 -1 58.5t-27 48.5t-47 33t-62 12q-59 0 -113 -19t-102 -57q-51 -37 -83 -88t-48 -113h-123l76 355h123l-14 -70q134 104 309 104q167 0 262 -110q98 -109 68 -260q-11 -48 -34.5 -94t-57.5 -86.5t-77.5 -74.5
t-93.5 -59q39 -24 67.5 -58.5t45 -75t20.5 -86t-6 -93.5z" />
    <glyph glyph-name="four" unicode="4" horiz-adv-x="1110" 
d="M729 459l145 678l-497 -678h352zM944 348l-49 -237h78l-23 -111h-395l25 111h75l52 237h-504l20 96l725 990h228l-209 -975h157l-22 -111h-158z" />
    <glyph glyph-name="five" unicode="5" 
d="M1055 336q-16 -78 -60 -141t-116 -119q-73 -56 -150 -83.5t-162 -27.5q-88 0 -152.5 26t-111.5 77l-14 -68h-123l76 354h123q-22 -123 45 -202h-2q32 -38 78.5 -56t105.5 -18q34 0 67 12t61 32.5t48 48t27 58.5l114 541q6 31 -1.5 59t-26 49t-47 33.5t-62.5 12.5
q-35 0 -68 -12.5t-61 -33.5t-47.5 -49t-26.5 -59l-24 -125h-240l166 793h619l16 69h121l-39 -182h-500l-72 -338q41 25 86.5 37t92.5 12q86 0 151 -28t113 -82q49 -56 65.5 -120.5t-0.5 -139.5z" />
    <glyph glyph-name="six" unicode="6" 
d="M909 770q6 31 -2 59t-27 49t-47.5 33.5t-62.5 12.5t-67 -12.5t-60.5 -33.5t-47 -49t-26.5 -59l-114 -541q-7 -31 0.5 -58.5t26.5 -48t47 -32.5t63 -12q34 0 67 12t61 32.5t48 48t27 58.5zM1055 336q-16 -78 -60 -141t-116 -119q-73 -56 -150 -83.5t-162 -27.5
t-150.5 26.5t-113.5 82.5q-51 55 -66 119.5t1 142.5l163 764q16 77 59 140.5t115 119.5q144 110 314 110q85 0 151 -25.5t111 -78.5l14 70h123l-76 -355h-122q24 125 -43 201q-35 38 -79.5 57t-103.5 19q-35 0 -68 -12t-60.5 -33t-46.5 -48.5t-25 -58.5l-48 -221
q41 26 86.5 37.5t92.5 11.5q86 0 151 -27.5t113 -82.5q99 -110 65 -258z" />
    <glyph glyph-name="seven" unicode="7" 
d="M653 0h-243l628 1323h-446l-14 -70h-125l39 181h817l-21 -95z" />
    <glyph glyph-name="eight" unicode="8" 
d="M1001 1206q7 31 -1 58.5t-27 48.5t-47 33t-62 12q-35 0 -68 -12t-60.5 -33t-46.5 -48.5t-25 -58.5l-46 -211q-7 -32 1 -59.5t26.5 -47.5t46.5 -32t62 -12t67.5 12t61 32t47 47.5t26.5 59.5zM868 580q6 31 -1.5 58.5t-26 48t-47 32.5t-62.5 12q-35 0 -68 -12t-60.5 -32.5
t-47 -48t-25.5 -58.5l-75 -351q-7 -31 0.5 -58.5t26.5 -48t47 -32.5t63 -12q34 0 67 12t61 32.5t48 48t27 58.5zM1055 336q-16 -78 -60.5 -142.5t-115.5 -119.5q-73 -56 -150 -82.5t-162 -26.5t-150.5 26.5t-113.5 82.5q-51 55 -66 119.5t1 142.5l28 137q10 48 33.5 94
t57 86.5t76.5 74.5t91 58q-38 25 -65.5 59t-44 74.5t-20.5 86.5t7 94q16 77 59 140.5t115 119.5q144 110 314 110q167 0 262 -110q98 -109 68 -260q-11 -48 -34.5 -94t-57.5 -86.5t-77.5 -74.5t-93.5 -59q79 -49 113 -132.5t14 -180.5z" />
    <glyph glyph-name="nine" unicode="9" 
d="M1001 1206q7 31 -1 58.5t-27 48.5t-47 33t-62 12q-35 0 -68 -12t-60.5 -33t-46.5 -48.5t-25 -58.5l-115 -540q-7 -32 0.5 -60t26 -49t46.5 -33t62 -12t67.5 12t61.5 33t47.5 49t26.5 60zM1055 336q-16 -78 -60.5 -142.5t-115.5 -119.5q-73 -56 -150 -82.5t-162 -26.5
q-88 0 -152.5 26t-111.5 77l-14 -68h-123l76 354h123q-22 -123 45 -202h-2q32 -38 78.5 -56t105.5 -18q34 0 67 12t61 32.5t48 48t27 58.5l45 220q-42 -25 -86 -36.5t-92 -11.5q-85 0 -150 26.5t-115 82.5q-49 56 -66.5 119.5t-0.5 140.5l71 330q16 77 60 140.5t117 119.5
q143 110 311 110q167 0 262 -110q98 -109 68 -260z" />
    <glyph glyph-name="colon" unicode=":" horiz-adv-x="504" 
d="M422 123q-5 -26 -19.5 -48t-35 -39t-44.5 -26.5t-49 -9.5q-26 0 -46 9.5t-33 26.5t-17.5 39t0.5 48q6 26 20 48.5t33.5 39t44 26t50.5 9.5q25 0 45 -9.5t33 -26t18 -39t0 -48.5zM561 772q-5 -25 -19.5 -47t-35 -38.5t-45 -26t-49.5 -9.5q-26 0 -46 9.5t-33 26t-17 38.5
t1 47q6 25 19.5 47.5t33 39.5t44 26.5t51.5 9.5q24 0 44 -9.5t33.5 -26.5t18.5 -39.5t0 -47.5z" />
    <glyph glyph-name="semicolon" unicode=";" horiz-adv-x="504" 
d="M561 780q-5 -26 -19.5 -48.5t-35 -39.5t-44.5 -27t-48 -10q-26 0 -46.5 10t-33.5 27t-17.5 39.5t0.5 48.5q6 26 20.5 48.5t34 39t43.5 26t50 9.5q25 0 45.5 -9.5t34 -26t18 -39t-1.5 -48.5zM262 -209h-84l39 459h219z" />
    <glyph glyph-name="semicolon" unicode="&#x37e;" horiz-adv-x="504" 
d="M561 780q-5 -26 -19.5 -48.5t-35 -39.5t-44.5 -27t-48 -10q-26 0 -46.5 10t-33.5 27t-17.5 39.5t0.5 48.5q6 26 20.5 48.5t34 39t43.5 26t50 9.5q25 0 45.5 -9.5t34 -26t18 -39t-1.5 -48.5zM262 -209h-84l39 459h219z" />
    <glyph glyph-name="less" unicode="&#x3c;" horiz-adv-x="862" 
d="M700 172l-438 293l27 125l563 291l61 -119l-452 -236l354 -233z" />
    <glyph glyph-name="equal" unicode="=" horiz-adv-x="897" 
d="M233 322l29 133h612l-28 -133h-613zM281 545l28 135h615l-29 -135h-614z" />
    <glyph glyph-name="greater" unicode="&#x3e;" horiz-adv-x="862" 
d="M279 172l-60 121l451 233l-353 236l111 119l440 -291l-26 -125z" />
    <glyph glyph-name="question" unicode="?" horiz-adv-x="1124" 
d="M473 125q-5 -26 -21 -49t-38.5 -40t-50 -26.5t-56.5 -9.5q-30 0 -53.5 9.5t-39 26.5t-21.5 40t0 49q5 26 21 49t38.5 40t50 26.5t57.5 9.5q29 0 52.5 -9.5t38.5 -26.5t21 -40t1 -49zM1204 944q-17 -77 -60.5 -140.5t-117.5 -119.5q-71 -56 -148.5 -82.5t-160.5 -26.5
q-100 0 -164 52l-92 -279h-162l68 512h241q-7 -35 0 -66.5t24.5 -55.5t44.5 -38t62 -14q36 0 70 12t62 33t47.5 48.5t25.5 58.5l80 366q6 31 -2 59t-27 49t-48 33.5t-64 12.5q-56 0 -110.5 -19.5t-106.5 -56.5q-48 -37 -79 -88.5t-48 -114.5h-123l76 357h122l-14 -70
q69 53 145 77.5t162 24.5q84 0 150 -26t112 -82q53 -56 68.5 -120.5t1.5 -139.5z" />
    <glyph glyph-name="at" unicode="@" horiz-adv-x="1847" 
d="M1303 877q6 28 -0.5 53t-23.5 43.5t-43 29.5t-58 11q-78 0 -138 -47q-34 -22 -55.5 -49.5t-34.5 -59.5l-198 -629v-14q-7 -29 0 -54t24.5 -43.5t44.5 -29t60 -10.5q37 0 72 12t65 33t52.5 49.5t33.5 60.5l194 629zM1780 264q-22 -104 -131 -186q-107 -78 -228 -78h-329
l18 61q-57 -43 -125.5 -70.5t-134.5 -27.5q-82 0 -145 25.5t-109 74.5q-45 51 -61 111.5t0 132.5q2 6 3.5 14.5t4.5 16.5v-2l131 422q25 75 75.5 140.5t131.5 119.5q153 108 327 108q68 0 121 -27t82 -75l19 68h266l-35 -111h-78l-272 -870h133q36 0 71 12.5t63.5 33.5
t48.5 48.5t26 58.5l192 912q7 31 -0.5 59t-27 49t-48.5 33t-65 12h-950q-35 0 -69 -12t-62.5 -33t-48.5 -49t-27 -59l-268 -1260q-6 -32 2 -60t27.5 -49t49 -33t64.5 -12h895l-23 -112h-897q-121 0 -196 82q-70 76 -47 184l268 1260q21 106 127 186q56 40 111.5 60t117.5 20
h948q65 0 114.5 -21t84.5 -59q34 -38 47 -85t0 -101z" />
    <glyph glyph-name="A" unicode="A" horiz-adv-x="1300" 
d="M528 459h381l-55 631zM829 0l23 111h88l-20 237h-447l-123 -237h90l-22 -111h-346l22 111h125l680 1323h180l117 -1323h102l-22 -111h-447z" />
    <glyph glyph-name="B" unicode="B" horiz-adv-x="1139" 
d="M1008 1167q6 32 -1.5 60.5t-26.5 49.5t-47 33.5t-63 12.5h-151l-117 -551h152q34 0 67.5 12t61 33t46.5 49t25 60zM885 508q7 31 -1 59t-27 49t-47.5 33.5t-64.5 12.5h-167l-117 -551h168q35 0 69 12t61.5 33t47.5 48.5t27 59.5zM1096 369q-32 -152 -174 -260
q-75 -56 -153 -82.5t-163 -26.5h-487l22 111h78l258 1212h-78l23 111h473q167 0 262 -109q101 -110 68 -260l-6 -35q-11 -51 -36 -97t-61 -85.5t-82 -71.5t-100 -53q48 -21 84 -53.5t58 -74t28 -90t-6 -102.5z" />
    <glyph glyph-name="C" unicode="C" 
d="M860 0l14 68q-66 -51 -144 -77t-163 -26t-150.5 26.5t-113.5 82.5q-51 55 -66 119.5t1 142.5l163 764q16 77 59 140.5t115 119.5q144 110 314 110q85 0 151 -25.5t111 -78.5l14 70h123l-76 -355h-122q14 63 3.5 114.5t-42.5 88.5t-80 55.5t-107 18.5q-35 0 -68 -12
t-60.5 -33t-46.5 -48.5t-25 -58.5l-209 -977q-7 -31 0.5 -58.5t26.5 -48t47 -32.5t63 -12q59 0 114 18t103 56q49 37 81 88t46 114h123l-76 -354h-123z" />
    <glyph glyph-name="D" unicode="D" horiz-adv-x="1139" 
d="M1026 1167q7 32 -1 60.5t-26.5 49.5t-47.5 33.5t-64 12.5h-168l-258 -1212h168q35 0 69 12t61.5 33t47.5 48.5t27 59.5zM1096 369q-31 -151 -174 -263q-148 -106 -316 -106h-487l22 111h78l258 1212h-78l23 111h487q87 0 153.5 -27.5t117.5 -81.5q48 -56 64 -120.5
t-1 -139.5z" />
    <glyph glyph-name="E" unicode="E" horiz-adv-x="1139" 
d="M119 0l22 111h78l258 1212h-78l23 111h901l-39 -181h-121l15 70h-459l-117 -551h264l15 70h125l-54 -250h-127l15 70h-262l-117 -551h459l14 69h121l-37 -180h-899z" />
    <glyph glyph-name="F" unicode="F" horiz-adv-x="1092" 
d="M1163 1253l15 70h-459l-117 -551h264l15 70h125l-54 -250h-127l15 70h-262l-117 -551h76l-23 -111h-395l22 111h78l258 1212h-78l23 111h901l-39 -181h-121z" />
    <glyph glyph-name="G" unicode="G" horiz-adv-x="1139" 
d="M1130 666l-145 -680q-15 -78 -59.5 -141.5t-116.5 -118.5q-72 -57 -156 -84t-180 -27l25 113q40 0 78 12t69 33t51.5 48.5t26.5 59.5l29 125q-95 -43 -181 -43q-85 0 -150.5 28.5t-115.5 84.5q-98 112 -67 260l163 772q31 150 179 260q74 54 151 82.5t162 28.5
q170 0 266 -107l15 70h122l-75 -357h-123q14 65 2 116.5t-43 88.5q-34 37 -81.5 56.5t-107.5 19.5q-34 0 -67 -12.5t-61 -33.5t-47.5 -49.5t-26.5 -60.5l-209 -979q-7 -32 1 -59.5t27 -48.5t47 -33t62 -12q48 0 94 11t88 36l115 541h-78l25 112h393l-23 -112h-78z" />
    <glyph glyph-name="H" unicode="H" horiz-adv-x="1143" 
d="M702 0l23 111h78l117 551h-340l-117 -551h78l-23 -111h-397l22 111h78l258 1212h-78l23 111h399l-24 -111h-78l-117 -551h340l117 551h-78l25 111h399l-25 -111h-77l-258 -1212h77l-22 -111h-400z" />
    <glyph glyph-name="I" unicode="I" horiz-adv-x="551" 
d="M113 0l22 111h74l258 1212h-74l25 111h366l-22 -111h-72l-258 -1212h72l-25 -111h-366z" />
    <glyph glyph-name="J" unicode="J" horiz-adv-x="969" 
d="M1098 1323l-209 -987q-17 -78 -60.5 -141t-115.5 -119q-73 -56 -149 -83.5t-161 -27.5q-49 0 -88.5 11.5t-68.5 37.5l-4 -14h-123l53 250h123q-8 -36 -1 -67.5t25 -54.5t45.5 -36.5t61.5 -13.5t67.5 12t61.5 32.5t47.5 48t26.5 58.5l233 1094h-80l25 113h393l-22 -113
h-80z" />
    <glyph glyph-name="K" unicode="K" horiz-adv-x="1174" 
d="M694 0l25 111h67l-114 540l-123 -137l-86 -403h78l-23 -111h-397l22 111h78l258 1212h-78l23 111h399l-24 -111h-78l-129 -610l559 610h-59l22 111h293l-25 -111h-90l-411 -451l157 -761h86l-22 -111h-408z" />
    <glyph glyph-name="L" unicode="L" horiz-adv-x="1010" 
d="M119 0l22 111h78l258 1212h-78l23 111h395l-22 -111h-78l-258 -1212h379l14 69h121l-37 -180h-817z" />
    <glyph glyph-name="M" unicode="M" horiz-adv-x="1622" 
d="M1143 0l24 111h80l228 1071l-609 -1182h-182l-106 1182l-228 -1071h80l-22 -111h-287l22 111h80l258 1212h-80l23 111h510l-25 -111h-88l88 -979l504 979h-88l23 111h503l-24 -111h-76l-258 -1212h76l-23 -111h-403z" />
    <glyph glyph-name="N" unicode="N" horiz-adv-x="1174" 
d="M754 0l-185 1167l-223 -1056h76l-23 -111h-278l22 111h78l258 1212h-78l23 111h346l184 -1170l228 1059h-80l22 111h283l-25 -111h-77l-258 -1212h77l-22 -111h-348z" />
    <glyph glyph-name="O" unicode="O" 
d="M1001 1206q7 31 -1 58.5t-27 48.5t-47 33t-62 12q-35 0 -68 -12t-60.5 -33t-46.5 -48.5t-25 -58.5l-209 -977q-7 -31 0.5 -58.5t26.5 -48t47 -32.5t63 -12q34 0 67 12t61 32.5t48 48t27 58.5zM1055 336q-16 -78 -60.5 -142.5t-115.5 -119.5q-73 -56 -150 -82.5
t-162 -26.5t-150.5 26.5t-113.5 82.5q-51 55 -66 119.5t1 142.5l163 764q16 77 59 140.5t115 119.5q144 110 314 110q167 0 262 -110q98 -109 68 -260z" />
    <glyph glyph-name="P" unicode="P" horiz-adv-x="1092" 
d="M1026 1167q7 32 -1 60.5t-26.5 49.5t-47.5 33.5t-64 12.5h-168l-117 -551h168q36 0 70 12t61.5 33t47 49t26.5 60zM1237 1030q-17 -77 -60.5 -140.5t-115.5 -119.5t-151.5 -82t-164.5 -26h-167l-117 -551h76l-23 -111h-395l22 111h78l258 1212h-78l23 111h487
q87 0 153.5 -27.5t117.5 -81.5q48 -56 64 -120.5t-1 -139.5z" />
    <glyph glyph-name="Q" unicode="Q" horiz-adv-x="1110" 
d="M1006 1210q7 31 -0.5 59t-26 49t-46.5 33.5t-63 12.5t-68.5 -12.5t-62 -33.5t-48 -49t-25.5 -59l-209 -979q-7 -32 1 -59.5t27 -48.5t47.5 -33t63.5 -12q34 0 67.5 12t61 33t47 48.5t25.5 59.5zM1026 -41q-78 -84 -172 -124t-203 -40q-55 0 -109.5 16.5t-105.5 47.5
q-48 26 -92 26q-45 0 -89.5 -22t-84.5 -64l-88 64q124 130 272 164q-75 52 -105.5 133.5t-10.5 175.5l163 768q16 77 59.5 141.5t119.5 118.5q141 111 315 111q85 0 149 -27.5t115 -83.5q99 -108 66 -260l-162 -768q-16 -69 -54.5 -130t-101.5 -114q-49 -43 -104.5 -70
t-112.5 -42q20 -13 41 -20t47 -7q91 0 172 84l78 -49z" />
    <glyph glyph-name="R" unicode="R" horiz-adv-x="1198" 
d="M1016 1167q7 32 -1 60.5t-27 49.5t-48 33.5t-63 12.5h-154l-117 -551h154q34 0 68 12t62 33t48 49t27 60zM1198 0q-170 0 -266 109q-100 111 -68 260l29 139q6 31 -2 59t-27 49t-48 33.5t-64 12.5h-172l-115 -551h78l-23 -111h-399l22 111h78l258 1212h-78l23 111h475
q167 0 268 -109q98 -110 68 -260l-8 -35q-11 -50 -35.5 -96t-60.5 -86t-82 -72t-101 -53q48 -21 84 -54.5t57.5 -75t28.5 -90t-4 -100.5l-31 -139q-6 -32 3.5 -59.5t32 -48.5t55 -33t73.5 -12l-18 -91z" />
    <glyph glyph-name="S" unicode="S" 
d="M1090 1081q24 125 -43 201q-35 38 -79.5 57t-103.5 19q-46 0 -90.5 -11.5t-89.5 -37.5q-88 -55 -106 -133q-7 -29 0.5 -56t25.5 -49l395 -483q84 -105 54 -252q-32 -150 -174 -260q-73 -56 -150 -83.5t-162 -27.5q-88 0 -152.5 26t-111.5 77l-14 -68h-123l76 354h123
q-22 -123 45 -202h-2q32 -38 78.5 -56t105.5 -18q45 0 91 11.5t91 39.5q43 26 70 58.5t37 72.5q5 29 -2 56t-27 49l-393 483q-86 104 -56 250q31 152 175 262q143 110 311 110q85 0 151 -25.5t111 -78.5l14 70h123l-76 -355h-122z" />
    <glyph glyph-name="T" unicode="T" horiz-adv-x="1010" 
d="M1081 1253l15 70h-168l-258 -1212h78l-25 -111h-393l22 111h80l258 1212h-166l-14 -70h-125l37 181h817l-37 -181h-121z" />
    <glyph glyph-name="U" unicode="U" horiz-adv-x="1174" 
d="M1305 1323l-209 -987q-17 -78 -62 -142.5t-116 -119.5q-75 -56 -152 -82.5t-162 -26.5q-175 0 -268 109q-53 55 -68 119.5t0 142.5l211 987h-78l23 113h399l-24 -113h-78l-234 -1094q-7 -31 1 -58.5t27.5 -48t48 -32.5t63.5 -12q34 0 67.5 12t60.5 32.5t46 48t26 58.5
l234 1094h-78l25 113h399l-25 -113h-77z" />
    <glyph glyph-name="V" unicode="V" horiz-adv-x="1300" 
d="M1434 1323l-680 -1323h-181l-116 1323h-105l25 111h446l-22 -111h-90l88 -979l501 979h-88l25 111h344l-25 -111h-122z" />
    <glyph glyph-name="W" unicode="W" horiz-adv-x="1944" 
d="M2075 1323l-684 -1323h-183l-65 729l-377 -729h-184l-123 1323h-107l25 111h452l-22 -111h-88l90 -979l311 604l-35 375h-106l22 111h455l-22 -111h-88l90 -979l506 979h-89l23 111h350l-24 -111h-127z" />
    <glyph glyph-name="X" unicode="X" horiz-adv-x="1174" 
d="M684 0l25 111h63l-104 454l-301 -454h69l-24 -111h-291l22 111h86l404 596l-146 616h-86l23 111h414l-23 -111h-65l106 -451l299 451h-65l22 111h295l-25 -111h-86l-405 -592l147 -620h86l-22 -111h-418z" />
    <glyph glyph-name="Y" unicode="Y" horiz-adv-x="1075" 
d="M1249 1323l-413 -602l-129 -610h75l-22 -111h-395l22 111h78l123 583l-152 629h-84l25 111h418l-25 -111h-70l109 -451l299 451h-68l25 111h291l-23 -111h-84z" />
    <glyph glyph-name="Z" unicode="Z" 
d="M166 0l24 111h82l662 1212h-365l-14 -70h-121l37 181h817l-22 -111h-84l-660 -1212h361l14 69h125l-39 -180h-817z" />
    <glyph glyph-name="bracketleft" unicode="[" horiz-adv-x="594" 
d="M117 -174l344 1614h327l-24 -115h-178l-293 -1388h176l-25 -111h-327z" />
    <glyph glyph-name="backslash" unicode="\" horiz-adv-x="993" 
d="M748 -141l-349 1493l156 51l352 -1493z" />
    <glyph glyph-name="bracketright" unicode="]" horiz-adv-x="594" 
d="M117 -174l24 111h181l292 1388h-178l25 115h327l-344 -1614h-327z" />
    <glyph glyph-name="asciicircum" unicode="^" horiz-adv-x="961" 
d="M834 639l-107 426l-283 -426l-137 51l395 592h144l147 -592z" />
    <glyph glyph-name="underscore" unicode="_" horiz-adv-x="967" 
d="M0 0v106h967v-106h-967z" />
    <glyph glyph-name="grave" unicode="`" horiz-adv-x="545" 
d="M537 1016l-144 215h158l96 -215h-110z" />
    <glyph glyph-name="a" unicode="a" horiz-adv-x="1171" 
d="M479 412h342l-53 569zM745 0l21 100h82l-19 213h-405l-107 -213h80l-20 -100h-314l21 100h113l612 1190h162l104 -1190h92l-20 -100h-402z" />
    <glyph glyph-name="b" unicode="b" horiz-adv-x="1024" 
d="M907 1053q6 27 -1 52t-24 44t-43.5 30t-58.5 11h-133l-106 -496h135q31 0 61.5 11t56 30.5t43 44.5t23.5 54zM797 457q6 28 -0.5 53t-23.5 43.5t-43 29.5t-58 11h-150l-106 -494h149q32 0 63 11t56.5 30t43.5 44t24 53zM985 332q-27 -136 -158 -234q-66 -49 -135.5 -73.5
t-146.5 -24.5h-439l21 100h70l231 1090h-70l21 100h424q77 0 134.5 -24.5t102.5 -73.5q45 -51 61.5 -108t2.5 -126l-8 -32q-10 -45 -32.5 -86.5t-54.5 -77t-74 -64t-91 -47.5q90 -40 129.5 -115.5t19.5 -173.5z" />
    <glyph glyph-name="c" unicode="c" horiz-adv-x="995" 
d="M774 0l12 61q-60 -46 -129.5 -69t-144.5 -23q-77 0 -137 23.5t-105 73.5q-42 51 -55 108.5t2 126.5l148 690q12 68 50 125.5t101 108.5q66 49 136.5 74.5t148.5 25.5q151 0 235 -96l13 63h112l-67 -319h-113q21 114 -35 182q-59 68 -166 68q-32 0 -62.5 -11t-55.5 -30
t-42.5 -44t-23.5 -53l-188 -878q-6 -28 1.5 -53t25 -43.5t43 -29.5t57.5 -11q52 0 101.5 16.5t92.5 48.5q42 34 71 80.5t42 103.5h112l-67 -319h-113z" />
    <glyph glyph-name="d" unicode="d" horiz-adv-x="1024" 
d="M924 1053q6 27 -1 52t-24.5 44t-43.5 30t-58 11h-150l-231 -1090h149q32 0 63 11t56.5 30t43.5 44t24 53zM985 332q-27 -133 -160 -236q-127 -96 -280 -96h-439l21 100h70l231 1090h-70l21 100h440q78 0 136.5 -24.5t103.5 -73.5q45 -51 60 -108t1 -126z" />
    <glyph glyph-name="e" unicode="e" horiz-adv-x="1024" 
d="M106 0l21 100h70l231 1090h-70l21 100h811l-35 -164h-111l13 64h-410l-106 -496h237l15 64h112l-49 -226h-113l15 62h-236l-106 -494h409l13 64h112l-35 -164h-809z" />
    <glyph glyph-name="f" unicode="f" horiz-adv-x="981" 
d="M1044 1126l13 64h-410l-106 -496h237l15 64h112l-49 -226h-113l15 62h-236l-106 -494h67l-20 -100h-357l21 100h70l231 1090h-70l21 100h811l-35 -164h-111z" />
    <glyph glyph-name="g" unicode="g" horiz-adv-x="1024" 
d="M1018 598l-129 -610q-17 -71 -55.5 -128t-106.5 -108q-131 -100 -301 -100l23 102q35 0 69 11t61.5 30.5t46.5 44.5t25 54l25 112q-83 -39 -162 -39q-77 0 -135 25.5t-103 75.5q-45 51 -59.5 108.5t0.5 126.5l148 692q27 136 157 236q66 49 135.5 73.5t147.5 24.5
q77 0 136 -24t99 -70l15 61h112l-69 -319h-111q13 59 3.5 105.5t-38.5 78.5q-32 34 -74 51t-96 17q-32 0 -62 -11t-55.5 -29.5t-43 -44t-23.5 -54.5l-186 -883q-6 -28 0.5 -53t23.5 -43.5t43 -29.5t58 -11q43 0 83.5 10.5t75.5 32.5l105 485h-70l21 102h358l-23 -102h-69z
" />
    <glyph glyph-name="h" unicode="h" horiz-adv-x="1030" 
d="M633 0l20 100h70l106 494h-307l-106 -494h71l-22 -100h-356l22 100h68l231 1090h-68l21 100h356l-20 -100h-72l-106 -496h309l104 496h-69l22 100h359l-23 -100h-69l-232 -1090h70l-21 -100h-358z" />
    <glyph glyph-name="i" unicode="i" horiz-adv-x="494" 
d="M100 0l21 100h67l232 1090h-68l23 100h330l-23 -100h-61l-232 -1090h62l-21 -100h-330z" />
    <glyph glyph-name="j" unicode="j" horiz-adv-x="870" 
d="M987 1190l-188 -889q-14 -69 -53 -125.5t-105 -107.5q-129 -99 -279 -99q-45 0 -79.5 10t-63.5 33l-2 -12h-111l48 225h110q-7 -33 -0.5 -61.5t22.5 -49t41 -32.5t56 -12t61 11t55.5 29.5t43 43.5t22.5 53l211 983h-71l20 102h354l-22 -102h-70z" />
    <glyph glyph-name="k" unicode="k" horiz-adv-x="1055" 
d="M625 0l22 100h62l-101 486l-114 -123l-78 -363h71l-22 -100h-356l22 100h68l231 1090h-68l21 100h356l-20 -100h-72l-117 -549l502 549h-51l23 100h262l-23 -100h-82l-368 -406l141 -684h78l-21 -100h-366z" />
    <glyph glyph-name="l" unicode="l" horiz-adv-x="909" 
d="M106 0l21 100h70l231 1090h-70l21 100h356l-22 -100h-68l-231 -1090h340l12 64h108l-34 -164h-734z" />
    <glyph glyph-name="m" unicode="m" horiz-adv-x="1460" 
d="M1030 0l23 100h71l203 963l-547 -1063h-166l-94 1063l-205 -963h72l-22 -100h-256l22 100h72l231 1090h-72l21 100h455l-21 -100h-78l80 -881l453 881h-80l20 100h453l-23 -100h-69l-232 -1090h70l-20 -100h-361z" />
    <glyph glyph-name="n" unicode="n" horiz-adv-x="1055" 
d="M678 0l-166 1051l-203 -951h70l-21 -100h-249l22 100h68l231 1090h-68l21 100h311l164 -1052l203 952h-70l21 100h254l-23 -100h-69l-232 -1090h70l-21 -100h-313z" />
    <glyph glyph-name="o" unicode="o" horiz-adv-x="995" 
d="M901 1085q6 28 -0.5 53t-23.5 44t-42 30t-55 11q-32 0 -62.5 -11t-55.5 -30t-42.5 -44t-23.5 -53l-188 -878q-6 -28 1.5 -53t25 -43.5t43 -29.5t57.5 -11q30 0 59 11t54 29.5t42 43.5t23 53zM952 301q-15 -69 -55 -126.5t-106 -108.5q-65 -50 -134.5 -73.5t-144.5 -23.5
q-77 0 -137 23.5t-105 73.5q-42 51 -55 108.5t2 126.5l148 690q12 68 50 125.5t101 108.5q66 49 136.5 74.5t148.5 25.5q75 0 133.5 -25.5t101.5 -74.5q89 -101 62 -234z" />
    <glyph glyph-name="p" unicode="p" horiz-adv-x="981" 
d="M924 1053q6 27 -1 52t-24.5 44t-43.5 30t-58 11h-150l-106 -496h151q32 0 63 11t56.5 30.5t43.5 44.5t24 54zM1112 926q-14 -68 -54 -125t-106 -107q-128 -100 -280 -100h-150l-106 -494h67l-20 -100h-357l21 100h70l231 1090h-70l21 100h440q78 0 136.5 -24.5
t103.5 -73.5q45 -51 60 -108t1 -126z" />
    <glyph glyph-name="q" unicode="q" horiz-adv-x="1001" 
d="M905 1087q6 29 -0.5 54.5t-23 44.5t-41.5 30t-56 11q-32 0 -63 -11t-56.5 -30t-43 -44.5t-23.5 -54.5l-186 -880q-6 -28 0.5 -53t23.5 -43.5t43 -29.5t58 -11q30 0 60 11t55 29.5t43 43.5t24 53zM924 -37q-72 -75 -156 -111t-184 -36q-48 0 -97 14t-94 43
q-21 12 -42 17.5t-40 5.5q-40 0 -81.5 -19.5t-75.5 -56.5l-80 57q52 57 114 94.5t134 51.5q-70 49 -96.5 121.5t-8.5 156.5l148 692q27 139 155 234q131 100 287 100q75 0 131.5 -24.5t101.5 -75.5q92 -95 62 -234l-148 -692q-24 -123 -137 -219q-92 -74 -196 -100
q18 -11 36 -17t41 -6q85 0 158 76l70 -45z" />
    <glyph glyph-name="r" unicode="r" horiz-adv-x="1079" 
d="M911 1053q6 27 -0.5 52t-23.5 44t-43 30t-58 11h-137l-106 -496h137q32 0 63 11t56.5 30.5t43 44.5t23.5 54zM1079 0q-152 0 -241 98q-44 50 -60 108t-2 126l27 125q6 28 -1 53t-24 43.5t-42 29.5t-56 11h-158l-104 -494h71l-22 -100h-358l22 100h68l231 1090h-68l21 100
h426q152 0 242 -98q43 -51 59 -108t2 -126l-6 -32q-9 -44 -31.5 -85t-55.5 -77t-75.5 -65t-91.5 -48q43 -20 76 -50t53 -67.5t26.5 -81t-3.5 -90.5l-27 -124q-6 -28 2 -53t28 -44t49.5 -30t67.5 -11l-18 -80z" />
    <glyph glyph-name="s" unicode="s" horiz-adv-x="995" 
d="M981 973q21 111 -39 180q-31 35 -70 52.5t-92 17.5q-43 0 -84 -10.5t-80 -34.5q-40 -25 -64 -54.5t-32 -66.5q-6 -25 0.5 -48.5t22.5 -43.5l356 -437q76 -94 51 -225q-15 -69 -54 -126.5t-105 -108.5q-129 -99 -279 -99q-157 0 -238 92l-12 -61h-110l69 319h109
q-22 -109 37 -184q62 -65 168 -65q40 0 80.5 11t80.5 36q77 45 97 116q5 26 -1.5 50.5t-25.5 44.5l-354 436q-38 46 -51 102.5t1 122.5q14 69 53.5 127t102.5 109q68 49 136.5 74.5t146.5 25.5q151 0 235 -96l13 63h112l-67 -319h-113z" />
    <glyph glyph-name="t" unicode="t" horiz-adv-x="909" 
d="M973 1126l12 64h-149l-232 -1090h70l-23 -100h-354l22 100h70l232 1090h-150l-12 -64h-113l33 164h735l-33 -164h-108z" />
    <glyph glyph-name="u" unicode="u" horiz-adv-x="1055" 
d="M1174 1190l-189 -889q-14 -69 -54 -126.5t-108 -108.5q-65 -50 -134 -73.5t-146 -23.5q-78 0 -138.5 23.5t-103.5 73.5q-45 51 -60 108.5t1 126.5l188 889h-68l21 102h356l-20 -102h-72l-211 -983q-5 -28 2.5 -53t24.5 -43.5t43.5 -29.5t58.5 -11q31 0 61 11t54.5 29.5
t42 43.5t22.5 53l209 983h-69l22 102h359l-23 -102h-69z" />
    <glyph glyph-name="v" unicode="v" horiz-adv-x="1171" 
d="M1290 1190l-612 -1190h-160l-110 1190h-93l21 100h405l-20 -100h-80l78 -881l450 881h-79l20 100h311l-22 -100h-109z" />
    <glyph glyph-name="w" unicode="w" horiz-adv-x="1751" 
d="M1868 1190l-615 -1190h-163l-62 655l-340 -655h-166l-110 1190h-97l21 100h409l-22 -100h-76l82 -881l281 543l-31 338h-98l22 100h408l-21 -100h-80l82 -881l455 881h-82l21 100h315l-21 -100h-112z" />
    <glyph glyph-name="x" unicode="x" horiz-adv-x="1055" 
d="M614 0l23 100h57l-94 408l-270 -408h63l-22 -100h-262l22 100h76l358 537l-127 553h-76l21 100h373l-21 -100h-61l94 -406l270 406h-57l20 100h265l-23 -100h-78l-362 -533l131 -557h78l-21 -100h-377z" />
    <glyph glyph-name="y" unicode="y" horiz-adv-x="969" 
d="M1122 1190l-370 -541l-115 -549h70l-23 -100h-358l22 100h70l110 523l-135 567h-78l21 100h377l-21 -100h-63l98 -406l268 406h-57l20 100h263l-23 -100h-76z" />
    <glyph glyph-name="z" unicode="z" horiz-adv-x="995" 
d="M152 0l22 100h72l592 1090h-324l-12 -64h-109l33 164h735l-22 -100h-78l-590 -1090h324l14 64h113l-35 -164h-735z" />
    <glyph glyph-name="braceleft" unicode="{" horiz-adv-x="897" 
d="M709 -209q-165 0 -258 109q-47 55 -63 119.5t1 142.5l55 260q7 32 -2 60.5t-31 49.5t-54 33.5t-70 12.5l24 110q39 0 76 12t67.5 33t52 49t28.5 60l55 262q15 77 58 141.5t114 120.5q72 56 154 82.5t176 26.5l-25 -111q-38 0 -75 -12.5t-67 -33.5t-51 -49t-28 -59
l-55 -262q-10 -49 -33 -95.5t-57 -87t-77 -74.5t-92 -58q78 -51 111.5 -135t13.5 -181l-55 -262q-7 -32 1.5 -59.5t29.5 -48.5t52.5 -33t70.5 -12l-19 -90z" />
    <glyph glyph-name="bar" unicode="|" horiz-adv-x="354" 
d="M94 -174l344 1614h123l-344 -1614h-123z" />
    <glyph glyph-name="braceright" unicode="}" horiz-adv-x="897" 
d="M877 578q-35 0 -68 -12.5t-59.5 -33.5t-45 -49.5t-24.5 -60.5l-57 -260q-16 -78 -59.5 -142.5t-114.5 -119.5q-73 -56 -154 -82.5t-174 -26.5l22 111q39 0 76 12t68 33t52.5 48.5t27.5 59.5l55 262q11 48 34 94t56 87t75 75t91 60q-78 49 -110.5 132.5t-12.5 182.5
l55 262q7 31 -2 59t-30 49t-53 33.5t-70 12.5l24 111q93 0 163 -26.5t118 -82.5t64 -120.5t-1 -141.5l-55 -262q-6 -32 3 -60t30 -49t52.5 -33t70.5 -12l-19 -92z" />
    <glyph glyph-name="asciitilde" unicode="~" horiz-adv-x="1208" 
d="M1309 1065q-153 -139 -373 -139q-57 0 -111.5 13.5t-103.5 41.5q-39 20 -88 20q-94 0 -174 -71l-92 51q168 156 387 156q62 0 114.5 -14t102.5 -42q40 -20 92 -20q45 0 88.5 18t81.5 54l78 -43z" />
    <glyph glyph-name="Euro" unicode="&#x20ac;" horiz-adv-x="1264" 
d="M1018 0l14 68q-71 -51 -147 -77t-164 -26q-171 0 -270 109q-50 55 -65.5 119.5t1.5 142.5l39 186h-195l31 146h195l22 98h-196l30 145h195l43 189q15 77 58 140.5t114 119.5q149 110 317 110q88 0 153.5 -25.5t115.5 -78.5l14 70h123l-76 -355h-123q14 63 2.5 114.5
t-43.5 88.5q-68 74 -190 74q-35 0 -68.5 -12t-61.5 -33t-48 -48.5t-27 -58.5l-61 -295h389l-29 -145h-391l-23 -98h391l-30 -146h-391l-62 -293q-7 -31 1 -58.5t27 -48t47.5 -32.5t63.5 -12q60 0 116.5 18t107.5 56q48 37 80.5 88t46.5 114h123l-76 -354h-123z" />
    <glyph glyph-name="quotesinglbase" unicode="&#x201a;" horiz-adv-x="522" 
d="M428 80q-30 -147 -195 -277l-36 68q40 32 64 64.5t32 66.5q-3 -2 -7 -2h-7q-25 0 -45.5 9.5t-35 25.5t-20 37.5t-0.5 44.5q4 23 19 44.5t35.5 38t45 26.5t48.5 10q31 0 53 -13t35 -34.5t16.5 -49.5t-2.5 -59z" />
    <glyph glyph-name="florin" unicode="&#x192;" horiz-adv-x="1004" 
d="M1309 1438q-44 0 -84.5 -12t-77.5 -35t-62 -51t-41 -62l-225 -500h195l-47 -112h-197l-307 -684q-31 -78 -92 -141.5t-146 -119.5q-167 -106 -368 -106l49 111q48 0 90 12t76 37q37 21 61.5 49.5t38.5 60.5l354 781h-77l45 112h79l181 404q37 75 95.5 139.5t143.5 118.5
t178 82t193 28z" />
    <glyph glyph-name="quotedblbase" unicode="&#x201e;" horiz-adv-x="909" 
d="M469 80q-30 -147 -213 -277l-37 68q45 32 70 64.5t33 66.5q-4 -2 -10 -2h-9q-27 0 -49.5 9.5t-38.5 25.5t-23 37.5t-2 44.5t20.5 44.5t37.5 38t48.5 26.5t53.5 10q34 0 59.5 -13t40.5 -34.5t20 -49.5t-1 -59zM811 80q-30 -147 -213 -277l-39 68q89 65 105 131
q-5 -2 -10 -2h-11q-27 0 -49.5 9.5t-37.5 25.5t-22 37.5t-2 44.5t20.5 44.5t37.5 38t48.5 26.5t53.5 10q34 0 59 -13t40.5 -34.5t20.5 -49.5t-1 -59z" />
    <glyph glyph-name="ellipsis" unicode="&#x2026;" horiz-adv-x="1354" 
d="M864 106q-5 -21 -20 -40.5t-37.5 -34t-50 -23t-56.5 -8.5t-52.5 8.5t-39.5 23t-22.5 34t-1.5 40.5q4 22 19 42t37.5 35t50 23.5t57.5 8.5q28 0 51.5 -8.5t39.5 -23.5t23 -35t2 -42zM473 106q-5 -21 -19.5 -40.5t-37 -34t-50 -23t-57.5 -8.5q-29 0 -52.5 8.5t-39.5 23
t-22.5 34t-1.5 40.5q5 22 20.5 42t37.5 35t49 23.5t56 8.5q30 0 53.5 -8.5t39.5 -23.5t22 -35t2 -42zM1255 106q-5 -21 -20 -40.5t-37.5 -34t-50 -23t-55.5 -8.5q-30 0 -54 8.5t-40 23t-23 34t-2 40.5q4 22 19.5 42t38 35t50.5 23.5t58 8.5q28 0 51.5 -8.5t39.5 -23.5
t23 -35t2 -42z" />
    <glyph glyph-name="dagger" unicode="&#x2020;" horiz-adv-x="813" 
d="M715 981l-281 -1331h-158l281 1331h-186l22 111h187l75 350h158l-76 -350h189l-23 -111h-188z" />
    <glyph glyph-name="daggerdbl" unicode="&#x2021;" horiz-adv-x="813" 
d="M604 455l-170 -805h-158l170 805h-186l23 110h186l88 416h-186l22 111h187l75 350h158l-76 -350h189l-23 -111h-188l-88 -416h188l-22 -110h-189z" />
    <glyph glyph-name="circumflex" unicode="&#x2c6;" horiz-adv-x="727" 
d="M680 1016l-57 96l-101 -96h-164l222 215h135l133 -215h-168z" />
    <glyph glyph-name="perthousand" unicode="&#x2030;" horiz-adv-x="2873" 
d="M2607 508q7 32 -1 60t-28 49t-50 33t-66 12t-71 -12t-63.5 -33t-48 -49t-26.5 -60l-60 -279q-7 -31 1.5 -58.5t28.5 -48t50 -32.5t66 -12t70.5 12t63 32.5t48.5 48t27 58.5zM1030 1206q7 31 -1 58.5t-27.5 48.5t-49 33t-65.5 12t-71 -12t-63.5 -33t-48.5 -48.5t-26 -58.5
l-60 -280q-7 -31 1.5 -58.5t28 -48.5t49.5 -33t67 -12q36 0 70 12t62 33t48 48.5t27 58.5zM1683 508q7 32 -1 60t-28 49t-49.5 33t-64.5 12q-36 0 -70.5 -12t-63 -33t-48.5 -49t-27 -60l-59 -279q-7 -31 1 -58.5t28 -48t49.5 -32.5t64.5 -12q36 0 71 12t64 32.5t49 48
t27 58.5zM408 0h-265l1747 1436h267zM1241 1032q-15 -77 -60.5 -141.5t-119.5 -120.5t-155 -82t-169 -26q-86 0 -155 26t-123 82q-99 111 -66 262l15 68q17 77 60 140.5t116 119.5q152 110 327 110q174 0 275 -110q51 -56 69.5 -119.5t1.5 -140.5zM1896 336
q-17 -78 -61.5 -142.5t-122.5 -119.5q-74 -56 -152.5 -82.5t-166.5 -26.5t-157.5 26.5t-119.5 82.5q-54 55 -70.5 119.5t-1.5 142.5l15 70q17 75 61 139.5t121 118.5q148 110 324 110q88 0 154.5 -27.5t119.5 -82.5q54 -54 70.5 -118.5t1.5 -139.5zM2818 336
q-15 -78 -60.5 -142.5t-119.5 -119.5q-78 -56 -157.5 -82.5t-166.5 -26.5q-86 0 -155.5 26.5t-120.5 82.5q-53 55 -69 119.5t1 142.5l15 70q15 75 58.5 139.5t119.5 118.5q74 55 155.5 82.5t167.5 27.5q87 0 155 -27.5t122 -82.5q51 -54 68.5 -118.5t0.5 -139.5z" />
    <glyph glyph-name="Scaron" unicode="&#x160;" 
d="M967 1505h-144l-131 250h174l58 -113l106 113h174zM1092 1083q12 63 1.5 115t-44.5 90t-79 58t-104 20q-46 0 -90.5 -12.5t-89.5 -40.5q-45 -26 -71.5 -58.5t-34.5 -72.5q-8 -31 -1 -57t27 -48l393 -487q87 -105 54 -254q-32 -150 -174 -260q-73 -56 -150 -84.5
t-162 -28.5q-88 0 -152.5 27t-111.5 78l-14 -68h-123l76 356h123q-22 -125 45 -204h-2q66 -74 184 -74q45 0 91 12.5t91 38.5q88 51 107 133q12 59 -29 103l-393 487q-87 108 -53 252q15 77 57 142.5t117 121.5q72 54 148 81.5t161 27.5t152 -26t112 -79l14 70h123l-76 -359
h-122z" />
    <glyph glyph-name="guilsinglleft" unicode="&#x2039;" horiz-adv-x="756" 
d="M623 279l-353 233l25 123l453 235l61 -118l-344 -179l270 -178z" />
    <glyph glyph-name="OE" unicode="&#x152;" horiz-adv-x="1642" 
d="M1020 1206q7 31 -1.5 58.5t-28 48.5t-48.5 33t-63 12q-37 0 -71.5 -12t-62.5 -33t-47 -48.5t-26 -58.5l-207 -977q-7 -31 0.5 -58.5t26.5 -48t48 -32.5t66 -12q34 0 68.5 12t62.5 32.5t48 48t26 58.5zM821 0l13 63q-51 -45 -118.5 -71.5t-133.5 -26.5q-88 0 -154 27.5
t-119 83.5q-48 56 -65.5 119t-1.5 141l164 764q15 77 59.5 140.5t116.5 119.5q75 56 154 83t167 27q66 0 121.5 -26.5t87.5 -73.5l12 66h699l-39 -183h-125l14 72h-385l-117 -551h189l14 70h125l-53 -250h-125l14 68h-188l-117 -551h385l15 69h124l-36 -180h-697z" />
    <glyph glyph-name="Zcaron" unicode="&#x17d;" 
d="M967 1503h-144l-131 252h174l58 -113l106 113h174zM166 0l24 111h82l664 1218h-365l-16 -69h-121l39 180h817l-22 -111h-86l-660 -1218h361l16 71h125l-41 -182h-817z" />
    <glyph glyph-name="quoteleft" unicode="&#x2018;" horiz-adv-x="522" 
d="M647 1116q-5 -23 -19 -44t-34 -37.5t-44 -26t-48 -9.5q-32 0 -54.5 13t-36 34t-17.5 49t3 58q17 75 64.5 143t132.5 134l35 -68q-45 -31 -69 -63t-32 -66q7 2 10 2h11q24 0 44 -9.5t34 -26t20 -38t0 -45.5z" />
    <glyph glyph-name="quoteright" unicode="&#x2019;" horiz-adv-x="522" 
d="M680 1268q-16 -76 -64.5 -144t-130.5 -133l-34 68q38 29 63 62t33 65h-17q-24 0 -45 9.5t-35 26t-19.5 38t-0.5 45.5q4 23 19 44t36 37t45.5 25.5t49.5 9.5q30 0 51.5 -12.5t34 -34t16.5 -49t-2 -57.5z" />
    <glyph glyph-name="quotedblleft" unicode="&#x201c;" horiz-adv-x="909" 
d="M688 1116q-5 -23 -20 -44t-37.5 -37.5t-49 -26t-53.5 -9.5q-35 0 -60 13t-40 34t-19.5 49t1.5 58q17 75 69.5 143t143.5 134l39 -68q-92 -61 -107 -129q4 2 20 2q27 0 50 -9.5t38.5 -26t22.5 -38t2 -45.5zM1030 1116q-5 -23 -20.5 -44t-38 -37.5t-49.5 -26t-54 -9.5
q-35 0 -59.5 13t-39.5 34t-19 49t2 58q17 75 69 143t142 134l41 -68q-91 -60 -109 -129q5 2 9 2h11q27 0 50.5 -9.5t39.5 -26t23 -38t2 -45.5z" />
    <glyph glyph-name="quotedblright" unicode="&#x201d;" horiz-adv-x="909" 
d="M721 1268q-16 -76 -69 -144t-144 -133l-37 68q43 29 69.5 62t34.5 65h-20q-27 0 -50 9.5t-39 26t-22.5 38t-1.5 45.5q5 23 20.5 44t37.5 37t48.5 25.5t53.5 9.5q34 0 59.5 -12.5t40.5 -34t20 -49t-1 -57.5zM1063 1268q-16 -76 -68.5 -144t-142.5 -133l-41 68
q43 29 70.5 62t33.5 65h-20q-27 0 -49.5 9.5t-38 26t-22 38t-1.5 45.5q5 23 20.5 44t37.5 37t48.5 25.5t53.5 9.5q34 0 59.5 -12.5t41 -34t20.5 -49t-2 -57.5z" />
    <glyph glyph-name="bullet" unicode="&#x2022;" horiz-adv-x="897" 
d="M887 518q-11 -56 -44 -103t-87 -87q-108 -78 -232 -78q-121 0 -200 78q-38 40 -49.5 87t-0.5 103q25 109 132 189q109 79 231 79q63 0 112.5 -19.5t88.5 -59.5q73 -80 49 -189z" />
    <glyph glyph-name="endash" unicode="&#x2013;" horiz-adv-x="768" 
d="M236 346l22 107h492l-25 -107h-489z" />
    <glyph glyph-name="emdash" unicode="&#x2014;" 
d="M240 346l24 107h817l-24 -107h-817z" />
    <glyph glyph-name="tilde" unicode="&#x2dc;" horiz-adv-x="973" 
d="M1083 1102q-55 -50 -125 -75.5t-151 -25.5q-76 0 -141 29q-32 14 -53.5 20.5t-32.5 6.5q-34 0 -65.5 -13.5t-63.5 -39.5l-74 43q131 112 297 112q35 0 71 -5.5t68 -20.5q32 -14 52 -19.5t32 -5.5q67 0 127 51l59 -33v-24z" />
    <glyph glyph-name="trademark" unicode="&#x2122;" horiz-adv-x="1434" 
d="M1210 659l19 93h37l75 358l-231 -451h-125l-43 451l-76 -358h39l-20 -93h-185l21 93h39l119 551h-121l-119 -551h41l-18 -93h-244l18 93h41l117 551h-41l-6 -33h-107l25 125h688l-16 -92h-41l37 -383l198 383h-35l19 92h291l-19 -92h-35l-118 -551h34l-18 -93h-240z" />
    <glyph glyph-name="scaron" unicode="&#x161;" horiz-adv-x="995" 
d="M870 1354h-129l-118 227h155l56 -102l94 102h153zM981 975q11 59 1 104t-38 80q-31 34 -70.5 52t-93.5 18q-85 0 -164 -47q-78 -46 -94 -119q-12 -55 23 -94l354 -439q38 -48 51.5 -103.5t-0.5 -123.5q-15 -68 -54 -126t-105 -109q-65 -50 -134.5 -75.5t-144.5 -25.5
q-80 0 -138.5 24t-99.5 70l-12 -61h-110l69 322h109q-22 -113 37 -187q62 -65 168 -65q81 0 161 47q41 25 64 53t33 66q9 52 -27 94l-354 436q-76 96 -47 227q14 69 53 128.5t102 109.5q66 49 135.5 73.5t147.5 24.5q75 0 133 -24t100 -70l15 61h112l-67 -321h-115z" />
    <glyph glyph-name="guilsinglright" unicode="&#x203a;" horiz-adv-x="756" 
d="M295 279l-59 116l344 178l-269 179l111 118l352 -235l-24 -123z" />
    <glyph glyph-name="oe" unicode="&#x153;" horiz-adv-x="1481" 
d="M918 1085q6 28 -1.5 53t-25.5 44t-44.5 30t-58.5 11q-30 0 -60 -11t-55 -30t-43 -44t-24 -53l-188 -878q-6 -28 1.5 -53t24.5 -43.5t42.5 -29.5t56.5 -11q32 0 63 11t56.5 29.5t43.5 43.5t23 53zM737 0l15 55q-48 -38 -108 -62t-122 -24q-155 0 -243 99
q-44 51 -60.5 107.5t-1.5 125.5l148 690q12 68 52.5 125.5t106.5 108.5q66 49 138 74.5t147 25.5q63 0 113 -25t77 -67l13 59h628l-32 -164h-113l12 64h-348l-104 -496h168l12 64h115l-50 -225h-114l14 59h-166l-106 -494h348l12 64h113l-33 -164h-631z" />
    <glyph glyph-name="zcaron" unicode="&#x17e;" 
d="M891 1147h-143l-132 250h175l57 -113l106 113h174zM166 0l24 111h86l570 862h-352l-15 -70h-121l39 180h817l-24 -110h-84l-569 -862h346l14 69h125l-39 -180h-817z" />
    <glyph glyph-name="Ydieresis" unicode="&#x178;" horiz-adv-x="1075" 
d="M1180 1612q-5 -23 -18.5 -43t-33 -34.5t-43.5 -23t-49 -8.5t-45.5 9t-34 24t-18.5 34.5t0 41.5q4 21 18 40.5t33.5 34.5t43.5 24t48 9q26 0 47 -8.5t34 -23t18 -34t0 -42.5zM868 1612q-5 -23 -18 -43t-32.5 -34.5t-43.5 -23t-49 -8.5q-26 0 -46 9t-33 24t-17.5 34.5
t0.5 41.5q4 21 17.5 40.5t32.5 34.5t43 24t50 9q25 0 45 -8.5t33.5 -23t18.5 -34t-1 -42.5zM1251 1327l-413 -604l-131 -612h75l-22 -111h-395l22 111h78l125 585l-152 631h-84l25 113h416l-23 -113h-70l107 -448l301 448h-68l25 113h291l-23 -113h-84z" />
    <glyph glyph-name="exclamdown" unicode="&#xa1;" horiz-adv-x="639" 
d="M713 1135q-6 -26 -21 -49t-36 -40t-47 -26.5t-54 -9.5q-27 0 -48.5 9.5t-35 26.5t-18 40t1.5 49q5 26 19.5 48.5t35.5 39.5t46 27t52 10q28 0 49.5 -10t36 -27t19.5 -39.5t0 -48.5zM119 -174l24 111h76l240 974h151l-172 -974h74l-25 -111h-368z" />
    <glyph glyph-name="cent" unicode="&#xa2;" 
d="M666 424h14l201 932h-17h-8q-4 0 -6 -2l-199 -930h15zM528 578q-8 -42 2.5 -74t42.5 -53l187 878q-81 -43 -96 -125zM1128 682q-14 -66 -49 -125t-94 -108q-110 -101 -242 -125l-30 -150h-84l28 139h-16h-14l-29 -139h-84l31 150q-124 24 -193 125q-68 99 -41 233l90 418
q14 66 48.5 125t91.5 110q55 47 115.5 78t129.5 45l33 150h84l-31 -140h15h16l31 140h84l-33 -150q62 -14 108 -44.5t81 -78.5q37 -51 48 -110t-3 -125q-6 -26 -22 -49t-38.5 -40t-49.5 -26.5t-56 -9.5t-52.5 9.5t-39 26.5t-21.5 40t0 49q4 24 18 45.5t33.5 38t43.5 27.5
t50 14q-27 86 -124 116l-191 -899q44 15 83 40.5t70.5 59.5t54 75t32.5 85h100z" />
    <glyph glyph-name="sterling" unicode="&#xa3;" horiz-adv-x="1139" 
d="M119 0l22 111h78l117 551h-78l25 110h77l70 328q31 149 178 260q73 56 149 82t161 26q88 0 154.5 -24.5t113.5 -77.5l14 70h123l-76 -357h-123q29 131 -43 203q-32 37 -79 56.5t-107 19.5q-35 0 -68 -12.5t-60.5 -33.5t-47 -49t-25.5 -59l-92 -432h389l-24 -110h-389
l-117 -551h459l14 69h121l-37 -180h-899z" />
    <glyph glyph-name="currency" unicode="&#xa4;" horiz-adv-x="1264" 
d="M1018 0l14 68q-71 -51 -147 -77t-164 -26q-171 0 -270 109q-50 55 -65.5 119.5t1.5 142.5l39 186h-195l31 146h195l22 98h-196l30 145h195l43 189q15 77 58 140.5t114 119.5q149 110 317 110q88 0 153.5 -25.5t115.5 -78.5l14 70h123l-76 -355h-123q14 63 2.5 114.5
t-43.5 88.5q-68 74 -190 74q-35 0 -68.5 -12t-61.5 -33t-48 -48.5t-27 -58.5l-61 -295h389l-29 -145h-391l-23 -98h391l-30 -146h-391l-62 -293q-7 -31 1 -58.5t27 -48t47.5 -32.5t63.5 -12q60 0 116.5 18t107.5 56q48 37 80.5 88t46.5 114h123l-76 -354h-123z" />
    <glyph glyph-name="yen" unicode="&#xa5;" horiz-adv-x="1270" 
d="M1346 1323l-379 -551h270l-33 -145h-293l-18 -99h291l-31 -145h-293l-57 -272h78l-23 -111h-399l22 111h80l57 272h-290l32 145h291l19 99h-291l33 145h254l-129 551h-88l22 111h418l-23 -111h-67l106 -451l299 451h-65l24 111h289l-25 -111h-81z" />
    <glyph glyph-name="brokenbar" unicode="&#xa6;" horiz-adv-x="354" 
d="M94 -174l156 723h121l-154 -723h-123zM285 715l153 725h123l-153 -725h-123z" />
    <glyph glyph-name="section" unicode="&#xa7;" 
d="M950 594q8 32 -4.5 61t-40.5 54q-20 15 -56 29.5t-85 31.5l-59.5 19l-81.5 26q-66 -22 -102.5 -57t-47.5 -86q-14 -65 45 -115q22 -15 56.5 -30t82.5 -33l58.5 -19.5t83.5 -25.5q130 41 151 145zM1014 145q-16 -78 -58 -141t-114 -113q-71 -51 -148.5 -75.5t-158.5 -24.5
q-90 0 -156.5 25t-114.5 78l-14 -70h-121l76 356h121q-10 -62 0.5 -113t44.5 -90q32 -37 79.5 -56t106.5 -19q50 0 93 10.5t85 32.5h-2q47 21 73 52.5t34 70.5q21 99 -121 155l-152 56.5l-149 54.5q-82 43 -110 108.5t-9 153.5q17 87 67.5 156t135.5 118q-134 88 -96 250
q30 155 174 252q139 103 309 103q85 0 152 -26.5t110 -80.5l16 72h123l-76 -357h-122q21 127 -43 203q-34 38 -79 58t-104 20q-49 0 -94.5 -10.5t-83.5 -32.5h2q-46 -22 -72.5 -53.5t-35.5 -71.5q-22 -98 123 -156l149.5 -54l153.5 -54q154 -86 116 -264
q-18 -87 -69.5 -155.5t-134.5 -119.5q65 -43 88.5 -106t5.5 -142z" />
    <glyph glyph-name="dieresis" unicode="&#xa8;" horiz-adv-x="813" 
d="M629 1102q-4 -19 -16.5 -35.5t-30.5 -28.5t-40.5 -19t-47.5 -7t-44.5 7t-32.5 19.5t-18.5 29t-1.5 34.5t16 34t30 28.5t41 20t48 7.5t44.5 -7t32.5 -19t18.5 -28.5t1.5 -35.5zM930 1102q-4 -19 -16.5 -35.5t-31 -28.5t-41 -19t-46.5 -7q-26 0 -46 7t-33.5 19.5t-19.5 29
t-2 34.5t17 34t31.5 28.5t41.5 20t47 7.5t44 -7t33.5 -19t19.5 -28.5t2 -35.5z" />
    <glyph glyph-name="copyright" unicode="&#xa9;" 
d="M741 172l7 21q-31 -20 -67 -28.5t-73 -8.5q-45 0 -81 15t-60 41.5t-33.5 61.5t-1.5 76l82 379q9 41 33 76.5t59 62t77 41.5t87 15q38 0 70 -10.5t55 -30.5l2 22h84l-41 -196h-84q6 28 1 53t-19 43.5t-35.5 29.5t-48.5 11q-31 0 -55.5 -19t-30.5 -47l-103 -483
q-6 -26 10.5 -46t47.5 -20q27 0 53 11t48 29.5t38 43.5t22 54h84l-43 -197h-84zM1018 745q12 54 0.5 101t-43.5 82q-32 37 -80 55t-107 18q-60 0 -114.5 -18t-102.5 -55q-49 -35 -80.5 -82t-44.5 -101l-88 -413q-11 -53 2 -99t48 -83q63 -74 184 -74q59 0 114 19t103 55
q49 37 79.5 83t41.5 99zM1053 332q-31 -149 -174 -260q-144 -107 -312 -107q-169 0 -264 107q-99 108 -67 260l88 413q17 76 61 140.5t115 118.5q72 54 149 81t162 27q168 0 264 -108q99 -108 66 -259z" />
    <glyph glyph-name="ordfeminine" unicode="&#xaa;" horiz-adv-x="961" 
d="M803 977q4 21 -1.5 40.5t-19 34t-33.5 23t-44 8.5q-25 0 -48.5 -8.5t-43 -23t-33 -34t-17.5 -40.5l-45 -207q-4 -21 2 -40.5t19 -34t32 -23t43 -8.5q25 0 49 8.5t44 23t33.5 34t17.5 40.5zM764 596l6 41q-35 -31 -81 -48.5t-95 -17.5q-123 0 -199 82q-73 83 -49 195
l10 51q25 112 133 195q110 82 234 82q32 0 62 -8t53 -25l18 90q4 21 -1.5 40.5t-19 34t-33.5 23t-44 8.5q-84 0 -160 -55q-69 -50 -90 -149h-100l57 272h100l-8 -45q98 70 221 70q65 0 114 -20t87 -62q73 -81 49 -195l-98 -465h55l-18 -94h-203z" />
    <glyph glyph-name="guillemotleft" unicode="&#xab;" horiz-adv-x="1298" 
d="M592 -8l-373 233l25 123l473 236l63 -119l-360 -178l285 -178zM1096 -8l-373 233l27 123l471 236l63 -119l-356 -178l282 -178z" />
    <glyph glyph-name="logicalnot" unicode="&#xac;" horiz-adv-x="897" 
d="M686 313l21 90h-457l29 125h612l-47 -215h-158z" />
    <glyph glyph-name="registered" unicode="&#xae;" 
d="M821 764q5 26 -12.5 45.5t-46.5 19.5h-66l-53 -251h66q29 0 54 18.5t32 46.5zM393 250h41l121 579h-39l14 64q-31 -32 -52.5 -69t-31.5 -79l-88 -413q-8 -42 -2 -79.5t23 -68.5zM1018 745q12 54 0.5 101t-43.5 82q-32 37 -80 55t-107 18q-60 0 -114.5 -18t-102.5 -55
q-8 -5 -15 -11.5t-15 -11.5h237q44 0 80 -15t59.5 -41.5t33.5 -62t1 -75.5l-4 -17q-11 -54 -42.5 -91.5t-82.5 -61.5q41 -25 60 -66t8 -92l-14 -70q-5 -21 2 -36t24 -21q11 17 16.5 36.5t10.5 39.5zM385 172l11 -11t12 -11q63 -74 184 -74q75 0 140 26t116 80
q-57 22 -87 71.5t-18 111.5l17 71q5 26 -12 46t-46 20h-73l-54 -252h39l-18 -78h-211zM1053 332q-31 -149 -174 -260q-144 -107 -312 -107q-169 0 -264 107q-99 108 -67 260l88 413q17 76 61 140.5t115 118.5q72 54 149 81t162 27q168 0 264 -108q99 -108 66 -259z" />
    <glyph glyph-name="macron" horiz-adv-x="897" 
d="M238 346l24 107h612l-22 -107h-614z" />
    <glyph glyph-name="degree" unicode="&#xb0;" horiz-adv-x="727" 
d="M754 1231q4 19 -0.5 36t-16 30t-29.5 20.5t-40 7.5q-23 0 -44 -7.5t-38.5 -20.5t-30 -30t-16.5 -36q-8 -38 17.5 -65t72.5 -27q22 0 43 7t37.5 19.5t28.5 29.5t16 36zM872 1231q-8 -41 -33 -77t-61 -62.5t-80 -42t-90 -15.5q-48 0 -86.5 15.5t-63.5 42t-35 62.5t-1 77
q9 40 34 76t61 62.5t80.5 42t92.5 15.5q46 0 83.5 -15.5t62 -42t35 -62.5t1.5 -76z" />
    <glyph glyph-name="plusminus" unicode="&#xb1;" horiz-adv-x="897" 
d="M164 0l31 143h614l-31 -143h-614zM647 459l-43 -205h-158l43 205h-227l31 143h227l45 205h158l-45 -205h227l-31 -143h-227z" />
    <glyph glyph-name="twosuperior" unicode="&#xb2;" horiz-adv-x="684" 
d="M324 780q18 79 53.5 150.5t91.5 134.5q22 23 70.5 67l117.5 107q91 78 103 123q3 18 -3 32t-19 24.5t-30.5 16t-37.5 5.5q-26 0 -50.5 -11t-45 -29.5t-36 -43.5t-22.5 -53h-80l41 194h78l-4 -20q32 17 65 26.5t70 9.5q42 0 76 -15t56 -40.5t30.5 -60t1.5 -72.5
q-9 -38 -36 -78.5t-75 -87.5l-41.5 -36.5l-40.5 -37.5q-20 -20 -41.5 -39l-40.5 -36q-37 -39 -62 -79.5t-38 -78.5h195l8 35h78l-23 -107h-409z" />
    <glyph glyph-name="threesuperior" unicode="&#xb3;" horiz-adv-x="684" 
d="M770 952q-8 -39 -31 -73.5t-56 -60t-74 -40t-83 -14.5q-35 0 -65 8t-53 27l-5 -19h-79l41 193h79q-6 -29 -1 -53.5t18 -42.5t33.5 -28.5t46.5 -10.5q29 0 53 18.5t29 44.5l36 170q5 28 -10 47t-43 19h-69l14 73h70q27 0 51 19t30 45l21 102q6 26 -9 45t-44 19
q-26 0 -51 -10.5t-46 -29t-36 -43t-21 -52.5h-80l43 192h78l-6 -18q32 17 65 27t70 10q42 0 76 -15t56.5 -41t31 -61t0.5 -74q-11 -51 -39.5 -88t-73.5 -63q34 -26 46 -65.5t1 -88.5z" />
    <glyph glyph-name="acute" unicode="&#xb4;" horiz-adv-x="545" 
d="M485 1016h-116l190 215h160z" />
    <glyph glyph-name="mu" unicode="&#xb5;" horiz-adv-x="1174" 
d="M838 0l14 63q-53 -45 -118 -71.5t-130 -26.5q-51 0 -90.5 12.5t-71.5 36.5l-53 -252h78l-23 -110h-397l23 110h77l259 1213h-78l22 110h320l-183 -856q-7 -31 1 -58.5t27.5 -48t48 -32.5t63.5 -12q34 0 67.5 12t60.5 32.5t46 48t26 58.5l160 746h-78l25 110h319
l-206 -974h77l-22 -111h-264z" />
    <glyph glyph-name="mu" unicode="&#x3bc;" horiz-adv-x="1174" 
d="M838 0l14 63q-53 -45 -118 -71.5t-130 -26.5q-51 0 -90.5 12.5t-71.5 36.5l-53 -252h78l-23 -110h-397l23 110h77l259 1213h-78l22 110h320l-183 -856q-7 -31 1 -58.5t27.5 -48t48 -32.5t63.5 -12q34 0 67.5 12t60.5 32.5t46 48t26 58.5l160 746h-78l25 110h319
l-206 -974h77l-22 -111h-264z" />
    <glyph glyph-name="paragraph" unicode="&#xb6;" horiz-adv-x="1518" 
d="M1483 1329l-359 -1679h-241l356 1679h-149l-357 -1679h-246l215 1016q-77 3 -137 31t-106 79q-50 56 -67.5 119.5t-0.5 140.5l6 35q17 75 61.5 139.5t119.5 120.5q74 56 151 83.5t164 27.5h809l-23 -113h-196z" />
    <glyph glyph-name="periodcentered" unicode="&#xb7;" horiz-adv-x="504" 
d="M494 465q-5 -21 -18.5 -40.5t-33 -34.5t-43.5 -23.5t-49 -8.5q-26 0 -46.5 8.5t-34 23.5t-19 34.5t-0.5 40.5q5 22 18.5 41.5t33 34.5t43.5 23.5t50 8.5q25 0 46 -8.5t34.5 -23.5t18.5 -34.5t0 -41.5z" />
    <glyph glyph-name="cedilla" unicode="&#xb8;" horiz-adv-x="537" 
d="M389 -180q-6 -29 -23 -55t-41.5 -45.5t-54.5 -31.5t-61 -12h-131l49 103h104q14 0 28.5 12t19.5 29q6 35 -31 35h-113l88 217h113l-49 -115q55 -8 84 -45.5t18 -91.5z" />
    <glyph glyph-name="onesuperior" unicode="&#xb9;" horiz-adv-x="432" 
d="M307 778l17 74h32l121 567h-33l17 76h151l-135 -643h31l-16 -74h-185z" />
    <glyph glyph-name="ordmasculine" unicode="&#xba;" horiz-adv-x="897" 
d="M852 1233q5 21 -0.5 40.5t-19 34t-33 23t-43.5 8.5t-47.5 -8.5t-43.5 -23t-34 -34t-19 -40.5l-98 -463q-4 -21 2 -40.5t19.5 -34t33 -23t43.5 -8.5t47.5 8.5t43 23t33.5 34t18 40.5zM958 848q-12 -57 -45.5 -105t-87.5 -90q-109 -82 -231 -82q-125 0 -201 82
q-37 42 -48 90t1 105l64 307q24 115 131 195q112 82 235 82q124 0 197 -82q38 -41 50 -89.5t1 -105.5z" />
    <glyph glyph-name="guillemotright" unicode="&#xbb;" horiz-adv-x="1298" 
d="M248 -8l-66 117l357 178l-281 178l115 119l372 -236l-24 -123zM754 -8l-66 117l356 178l-280 178l117 119l370 -236l-26 -123z" />
    <glyph glyph-name="onequarter" unicode="&#xbc;" horiz-adv-x="897" 
d="M510 111l61 282l-204 -282h143zM307 666l23 110h612l-22 -110h-613zM541 838l18 77h35l125 588h-37l16 78h179l-140 -666h37l-18 -77h-215zM633 35l-21 -98h39l-18 -76h-215l18 76h39l19 98h-244l12 61l361 506h129l-103 -491h74l-14 -76h-76z" />
    <glyph glyph-name="onehalf" unicode="&#xbd;" horiz-adv-x="897" 
d="M307 666l23 110h612l-22 -110h-613zM541 838l18 77h35l125 588h-37l16 78h179l-140 -666h37l-18 -77h-215zM227 -139q17 81 56 155t96 140q22 24 72 69.5l122 108.5q96 82 107 129q4 18 -3 32t-20.5 24.5t-32 16t-38.5 5.5q-27 0 -52.5 -11t-46.5 -30t-36 -44.5
t-21 -54.5h-86l41 201h86l-4 -22q60 38 135 38q45 0 80 -15t58 -41.5t32 -62.5t0 -77q-15 -72 -117 -170l-40.5 -37l-43.5 -37l-40.5 -41.5t-38.5 -36.5q-42 -42 -67.5 -81.5t-39.5 -81.5h201l8 34h84l-27 -110h-424z" />
    <glyph glyph-name="threequarters" unicode="&#xbe;" horiz-adv-x="897" 
d="M510 111l61 282l-204 -282h143zM307 666l23 110h612l-22 -110h-613zM899 1018q-8 -41 -32 -76.5t-58 -62t-75.5 -41.5t-86.5 -15q-38 0 -68.5 8.5t-52.5 28.5l-4 -22h-86l43 200h86q-6 -28 -1.5 -53.5t18 -44.5t34.5 -30t48 -11q29 0 53.5 19.5t32.5 48.5l34 172
q8 29 -10 48t-47 19h-72l17 76h71q15 0 29 5.5t26 14.5t20.5 21.5t10.5 26.5l23 104q6 28 -11 48t-46 20q-27 0 -53 -11t-47 -30.5t-36.5 -45t-21.5 -53.5h-86l43 199h86l-4 -22q29 18 63.5 28t71.5 10q45 0 80 -15t58 -41.5t32 -62t0 -75.5q-11 -53 -40.5 -91.5
t-76.5 -66.5q34 -28 47 -67.5t2 -90.5zM633 35l-21 -98h39l-18 -76h-215l18 76h39l19 98h-244l12 61l361 506h129l-103 -491h74l-14 -76h-76z" />
    <glyph glyph-name="questiondown" unicode="&#xbf;" horiz-adv-x="1124" 
d="M1245 1135q-6 -26 -21.5 -48.5t-38 -39.5t-49.5 -27t-55 -10q-29 0 -52.5 10t-39 27t-21 39.5t0.5 48.5q5 26 20.5 48.5t38 39.5t50 27t57.5 10q28 0 51 -10t38 -27t21 -39.5t0 -48.5zM823 -174l17 70q-135 -105 -310 -105q-85 0 -149 27.5t-115 83.5q-48 54 -65 118
t0 140l35 157q15 76 58.5 140.5t115.5 120.5q74 54 150 81t161 27q100 0 162 -53l98 278h158l-68 -512h-242q9 36 2.5 68t-24.5 56t-46.5 38t-64.5 14q-34 0 -67 -12t-60 -33t-46.5 -49t-26.5 -59l-76 -367q-7 -32 0.5 -59.5t26 -47.5t46.5 -32t62 -12q60 0 111.5 18
t101.5 55q53 41 85 90.5t46 112.5h123l-76 -354h-123z" />
    <glyph glyph-name="Agrave" unicode="&#xc0;" horiz-adv-x="1300" 
d="M952 1503l-157 252h178l108 -252h-129zM530 463h381l-55 633zM829 0l23 111h88l-20 239h-447l-123 -239h90l-22 -111h-346l22 111h125l682 1329h180l115 -1329h102l-22 -111h-447z" />
    <glyph glyph-name="Aacute" unicode="&#xc1;" horiz-adv-x="1300" 
d="M1053 1503h-131l217 252h182zM530 463h381l-55 633zM829 0l23 111h88l-20 239h-447l-123 -239h90l-22 -111h-346l22 111h125l682 1329h180l115 -1329h102l-22 -111h-447z" />
    <glyph glyph-name="Acircumflex" unicode="&#xc2;" horiz-adv-x="1300" 
d="M1085 1503l-57 115l-108 -115h-179l242 252h145l138 -252h-181zM530 463h381l-55 633zM829 0l23 111h88l-20 239h-447l-123 -239h90l-22 -111h-346l22 111h125l682 1329h180l115 -1329h102l-22 -111h-447z" />
    <glyph glyph-name="Atilde" unicode="&#xc3;" horiz-adv-x="1300" 
d="M1382 1626q-63 -62 -135 -92.5t-160 -30.5q-37 0 -71.5 8t-69.5 27q-31 16 -52.5 24.5t-35.5 8.5q-65 0 -131 -66l-76 51q71 73 147 107.5t163 34.5q38 0 74 -8t71 -27q63 -31 86 -31q65 0 131 66l59 -41v-31zM530 461h381l-55 635zM829 0l23 111h88l-20 239h-447
l-123 -239h90l-22 -111h-346l22 111h125l682 1329h180l115 -1329h102l-22 -111h-447z" />
    <glyph glyph-name="Adieresis" unicode="&#xc4;" horiz-adv-x="1300" 
d="M1305 1612q-5 -23 -19 -43t-33.5 -34.5t-44 -23t-49.5 -8.5t-45 9t-33.5 24t-19 34.5t-0.5 41.5q4 21 18 40.5t34 34.5t44 24t49 9t46 -8.5t34.5 -23t18.5 -34t0 -42.5zM993 1612q-5 -23 -19 -43t-34 -34.5t-44.5 -23t-49.5 -8.5q-26 0 -46 9t-33.5 24t-18.5 34.5t0 41.5
q4 21 17.5 40.5t33 34.5t44 24t50.5 9q25 0 46 -8.5t35 -23t19.5 -34t-0.5 -42.5zM530 463h381l-55 633zM829 0l23 111h88l-20 239h-447l-123 -239h90l-22 -111h-346l22 111h125l682 1329h180l115 -1329h102l-22 -111h-447z" />
    <glyph glyph-name="Aring" unicode="&#xc5;" horiz-adv-x="1300" 
d="M1126 1542q5 21 0 39.5t-18 32.5t-32 22.5t-42 8.5q-24 0 -46.5 -8.5t-41 -22.5t-32 -32.5t-17.5 -39.5q-5 -21 0.5 -39.5t18.5 -32.5t32 -22t43 -8q23 0 45.5 8t41 22t31 32.5t17.5 39.5zM530 463h381l-55 633zM829 0l23 111h88l-20 239h-447l-123 -239h90l-22 -111
h-346l22 111h125l635 1243q-107 58 -80 188q18 86 100 150q85 63 183 63t153 -63v2v-2h4h-4q60 -60 41 -150q-14 -66 -55 -112.5t-111 -75.5l111 -1243h102l-22 -111h-447z" />
    <glyph glyph-name="AE" unicode="&#xc6;" horiz-adv-x="1931" 
d="M535 459h387l-60 631zM838 0l24 111h90l-22 237h-451l-123 -237h90l-24 -111h-350l22 111h127l684 1323h185l77 -865l158 754h-76l23 111h842l-39 -181h-125l14 70h-393l-117 -551h193l14 70h129l-53 -250h-129l14 70h-192l-117 -551h393l14 69h125l-37 -180h-970z" />
    <glyph glyph-name="Ccedilla" unicode="&#xc7;" 
d="M860 0l14 68q-117 -88 -260 -103l-8 -12q62 -8 93.5 -48.5t19.5 -99.5q-7 -32 -26 -60t-45.5 -49t-59 -33.5t-66.5 -12.5h-145l53 112h115q18 0 32 12.5t17 30.5q9 37 -33 37h-125l51 129q-61 13 -113 42.5t-87 78.5q-38 54 -50.5 114.5t1.5 129.5l163 770
q16 77 59 141.5t118 120.5q72 54 149 82.5t162 28.5t152 -27t112 -80l14 70h123l-76 -357h-122q27 130 -39 205q-32 37 -80 56.5t-107 19.5q-35 0 -68 -12.5t-60.5 -33.5t-46.5 -49.5t-25 -60.5l-211 -979q-7 -32 0.5 -59.5t26.5 -48.5t47 -33t63 -12q59 0 114 19t103 55
q49 37 81 88t46 116h123l-76 -356h-123z" />
    <glyph glyph-name="Egrave" unicode="&#xc8;" horiz-adv-x="1139" 
d="M862 1503l-153 252h174l108 -252h-129zM119 0l22 111h78l260 1218h-78l23 111h901l-41 -180h-121l17 69h-459l-119 -553h264l15 70h125l-54 -252h-125l15 72h-262l-119 -555h459l16 71h121l-39 -182h-899z" />
    <glyph glyph-name="Eacute" unicode="&#xc9;" horiz-adv-x="1139" 
d="M963 1503h-129l217 252h176zM119 0l22 111h78l260 1218h-78l23 111h901l-41 -180h-121l17 69h-459l-119 -553h264l15 70h125l-54 -252h-125l15 72h-262l-119 -555h459l16 71h121l-39 -182h-899z" />
    <glyph glyph-name="Ecircumflex" unicode="&#xca;" horiz-adv-x="1139" 
d="M995 1503l-57 115l-109 -115h-174l240 252h143l131 -252h-174zM119 0l22 111h78l260 1218h-78l23 111h901l-41 -180h-121l17 69h-459l-119 -553h264l15 70h125l-54 -252h-125l15 72h-262l-119 -555h459l16 71h121l-39 -182h-899z" />
    <glyph glyph-name="Edieresis" unicode="&#xcb;" horiz-adv-x="1139" 
d="M1225 1612q-6 -23 -19.5 -43t-32.5 -34.5t-43 -23t-49 -8.5t-45 9t-33.5 24t-19 34.5t-0.5 41.5q4 21 18 40.5t34 34.5t44 24t49 9t45.5 -8.5t33.5 -23t18 -34t0 -42.5zM913 1612q-5 -23 -18 -43t-31.5 -34.5t-42.5 -23t-49 -8.5t-45 9t-32.5 24t-18 34.5t-0.5 41.5
q4 21 17.5 40.5t33 34.5t43.5 24t49 9t45 -8.5t33 -23t17.5 -34t-1.5 -42.5zM119 0l22 111h78l260 1216h-78l23 113h901l-41 -183h-121l17 70h-459l-119 -551h264l15 70h125l-54 -252h-125l15 72h-262l-119 -555h459l14 69h121l-37 -180h-899z" />
    <glyph glyph-name="Igrave" unicode="&#xcc;" horiz-adv-x="555" 
d="M573 1503l-147 252h168l100 -252h-121zM115 0l22 111h72l260 1218h-72l25 111h373l-25 -111h-76l-258 -1218h74l-23 -111h-372z" />
    <glyph glyph-name="Iacute" unicode="&#xcd;" horiz-adv-x="555" 
d="M666 1503h-123l209 252h163zM115 0l22 111h72l260 1218h-72l25 111h373l-25 -111h-76l-258 -1218h74l-23 -111h-372z" />
    <glyph glyph-name="Icircumflex" unicode="&#xce;" horiz-adv-x="561" 
d="M700 1503l-53 115l-106 -115h-164l231 252h135l123 -252h-166zM115 0l22 111h74l260 1218h-74l25 111h375l-23 -111h-74l-260 -1218h74l-22 -111h-377z" />
    <glyph glyph-name="Idieresis" unicode="&#xcf;" horiz-adv-x="569" 
d="M913 1612q-5 -23 -17.5 -43t-31 -34.5t-41 -23t-47.5 -8.5t-44.5 9t-32 24t-17.5 34.5t0 41.5q4 21 17.5 40.5t32.5 34.5t42.5 24t48.5 9q50 0 75.5 -31t14.5 -77zM616 1612q-5 -23 -18 -43t-32 -34.5t-42.5 -23t-48.5 -8.5q-24 0 -43.5 9t-31.5 24t-17 34.5t0 41.5
q4 21 17.5 40.5t32 34.5t42 24t47.5 9q50 0 77.5 -31t16.5 -77zM117 0l22 111h74l260 1216h-74l23 113h383l-25 -113h-73l-261 -1216h76l-24 -111h-381z" />
    <glyph glyph-name="Eth" unicode="&#xd0;" horiz-adv-x="1139" 
d="M1026 1167q7 32 -1 60.5t-26.5 49.5t-47.5 33.5t-64 12.5h-168l-117 -551h193l-25 -110h-192l-117 -551h168q35 0 69 12t61.5 33t47.5 48.5t27 59.5zM1096 369q-31 -151 -174 -263q-148 -106 -316 -106h-487l22 111h78l117 551h-78l25 110h77l117 551h-78l23 111h487
q87 0 153.5 -27.5t117.5 -81.5q48 -56 64 -120.5t-1 -139.5z" />
    <glyph glyph-name="Ntilde" unicode="&#xd1;" horiz-adv-x="1174" 
d="M1305 1626q-60 -62 -133 -92.5t-156 -30.5q-38 0 -74 8t-72 27q-29 16 -50 24.5t-34 8.5q-65 0 -131 -66l-75 51q71 73 146.5 107.5t160.5 34.5q38 0 72.5 -8t68.5 -27q66 -31 86 -31q35 0 67 17t66 49l58 -41v-31zM754 0l-183 1171l-225 -1060h76l-23 -111h-278l22 111
h78l258 1216h-76l23 113h346l182 -1176l228 1063h-78l22 113h283l-25 -113h-77l-260 -1216h77l-22 -111h-348z" />
    <glyph glyph-name="Ograve" unicode="&#xd2;" 
d="M846 1505l-156 250h176l109 -250h-129zM1004 1210q7 32 -1 60.5t-27.5 49.5t-47.5 33.5t-62 12.5q-35 0 -68 -12.5t-60.5 -33.5t-46.5 -49.5t-25 -60.5l-211 -979q-7 -32 0.5 -59.5t26.5 -48.5t47 -33t63 -12q34 0 67 12t61 33t48 48.5t27 59.5zM1055 336
q-16 -75 -60.5 -141t-115.5 -121q-73 -56 -150 -83.5t-162 -27.5q-168 0 -264 111q-51 55 -66 121t1 141l163 770q16 77 59 141.5t118 120.5q72 54 149 81.5t162 27.5q169 0 264 -109q96 -111 66 -262z" />
    <glyph glyph-name="Oacute" unicode="&#xd3;" 
d="M946 1505h-129l213 250h178zM1004 1210q7 32 -1 60.5t-27.5 49.5t-47.5 33.5t-62 12.5q-35 0 -68 -12.5t-60.5 -33.5t-46.5 -49.5t-25 -60.5l-211 -979q-7 -32 0.5 -59.5t26.5 -48.5t47 -33t63 -12q34 0 67 12t61 33t48 48.5t27 59.5zM1055 336q-16 -75 -60.5 -141
t-115.5 -121q-73 -56 -150 -83.5t-162 -27.5q-168 0 -264 111q-51 55 -66 121t1 141l163 770q16 77 59 141.5t118 120.5q72 54 149 81.5t162 27.5q169 0 264 -109q96 -111 66 -262z" />
    <glyph glyph-name="Ocircumflex" unicode="&#xd4;" 
d="M979 1505l-59 113l-107 -113h-174l238 250h143l133 -250h-174zM1004 1210q7 32 -1 60.5t-27.5 49.5t-47.5 33.5t-62 12.5q-35 0 -68 -12.5t-60.5 -33.5t-46.5 -49.5t-25 -60.5l-211 -979q-7 -32 0.5 -59.5t26.5 -48.5t47 -33t63 -12q34 0 67 12t61 33t48 48.5t27 59.5z
M1055 336q-16 -75 -60.5 -141t-115.5 -121q-73 -56 -150 -83.5t-162 -27.5q-168 0 -264 111q-51 55 -66 121t1 141l163 770q16 77 59 141.5t118 120.5q72 54 149 81.5t162 27.5q169 0 264 -109q96 -111 66 -262z" />
    <glyph glyph-name="Otilde" unicode="&#xd5;" 
d="M1268 1626q-62 -60 -132.5 -91.5t-154.5 -31.5q-38 0 -73.5 8.5t-67.5 28.5q-31 14 -52.5 22.5t-35.5 8.5q-67 0 -127 -66l-74 51q66 73 141.5 107.5t159.5 34.5q38 0 73.5 -7t69.5 -26q32 -17 53 -25t33 -8q63 0 129 66l58 -41v-31zM1001 1210q7 31 -0.5 59t-26 49
t-46.5 33.5t-62 12.5q-35 0 -68.5 -12.5t-61 -33.5t-47 -49t-25.5 -59l-209 -979q-7 -32 0.5 -59.5t26.5 -48.5t47 -33t63 -12q34 0 67 12t61 33t48 48.5t27 59.5zM1055 336q-16 -75 -60.5 -141t-115.5 -121q-73 -56 -150 -83.5t-162 -27.5q-168 0 -264 111q-51 55 -66 121
t1 141l163 770q16 75 59 139.5t118 120.5q144 111 311 111q169 0 264 -111q96 -111 66 -260z" />
    <glyph glyph-name="Odieresis" unicode="&#xd6;" 
d="M883 1612q-5 -23 -18 -42.5t-32.5 -34.5t-43.5 -23.5t-50 -8.5q-24 0 -43.5 9t-32.5 24t-18 34.5t0 41.5q4 21 17.5 40.5t33 34.5t43 24t47.5 9q25 0 45.5 -8.5t33.5 -23t18 -34t0 -42.5zM1192 1612q-5 -23 -18 -42.5t-32.5 -34.5t-43.5 -23.5t-49 -8.5q-26 0 -46 9
t-32.5 24t-18 34.5t-0.5 41.5q6 21 19.5 40.5t32.5 34.5t42.5 24t49.5 9q25 0 45 -8.5t33 -23t18 -34t0 -42.5zM1001 1210q7 31 -0.5 59t-26 49t-46.5 33.5t-62 12.5q-35 0 -68.5 -12.5t-61 -33.5t-47 -49t-25.5 -59l-209 -979q-7 -32 0.5 -59.5t26.5 -48.5t47 -33t63 -12
q34 0 67 12t61 33t48 48.5t27 59.5zM1055 336q-16 -75 -60.5 -141t-115.5 -121q-73 -56 -150 -83.5t-162 -27.5q-168 0 -264 111q-51 55 -66 121t1 141l163 770q16 77 59 140.5t118 119.5q144 111 311 111q169 0 264 -111q48 -56 64.5 -119.5t1.5 -140.5z" />
    <glyph glyph-name="multiply" unicode="&#xd7;" horiz-adv-x="858" 
d="M690 256l-149 164l-222 -164l-88 94l222 166l-152 164l129 94l150 -164l221 164l92 -94l-223 -164l153 -166z" />
    <glyph glyph-name="Oslash" unicode="&#xd8;" horiz-adv-x="1116" 
d="M938 870l-451 -508l-28 -133q-7 -31 1 -58.5t27 -48t47.5 -32.5t63.5 -12t69 12t61.5 32.5t47.5 48t27 58.5zM530 563l451 508l29 135q7 31 -1 58.5t-27 48.5t-47.5 33t-64.5 12q-35 0 -68.5 -12t-61.5 -33t-47.5 -48.5t-26.5 -58.5zM1235 1204q2 -28 1 -53t-7 -51
l-162 -764q-17 -78 -62.5 -142.5t-117.5 -119.5q-72 -56 -149.5 -82.5t-162.5 -26.5q-218 0 -303 156l-114 -129l-84 57l162 180q-7 53 6 107l164 764q15 77 57 140.5t115 119.5q146 110 317 110q109 0 183.5 -39t117.5 -116l115 129l86 -58z" />
    <glyph glyph-name="Ugrave" unicode="&#xd9;" horiz-adv-x="1174" 
d="M881 1505l-158 250h176l111 -250h-129zM1307 1329l-211 -993q-35 -151 -178 -262q-75 -56 -152 -83.5t-162 -27.5q-174 0 -268 111q-53 55 -68 121t0 141l211 993h-76l23 113h397l-22 -113h-78l-236 -1098q-7 -32 1 -59.5t27.5 -48.5t48 -33t63.5 -12q34 0 67.5 12
t60.5 33t46 48.5t26 59.5l236 1098h-78l25 113h399l-25 -113h-77z" />
    <glyph glyph-name="Uacute" unicode="&#xda;" horiz-adv-x="1174" 
d="M981 1505h-129l215 250h174zM1307 1329l-211 -993q-35 -151 -178 -262q-75 -56 -152 -83.5t-162 -27.5q-174 0 -268 111q-53 55 -68 121t0 141l211 993h-76l23 113h397l-22 -113h-78l-236 -1098q-7 -32 1 -59.5t27.5 -48.5t48 -33t63.5 -12q34 0 67.5 12t60.5 33t46 48.5
t26 59.5l236 1098h-78l25 113h399l-25 -113h-77z" />
    <glyph glyph-name="Ucircumflex" unicode="&#xdb;" horiz-adv-x="1174" 
d="M1016 1505l-62 113l-106 -113h-176l237 250h146l135 -250h-174zM1307 1329l-211 -993q-35 -151 -178 -262q-75 -56 -152 -83.5t-162 -27.5q-174 0 -268 111q-53 55 -68 121t0 141l211 993h-76l23 113h397l-22 -113h-78l-236 -1098q-7 -32 1 -59.5t27.5 -48.5t48 -33
t63.5 -12q34 0 67.5 12t60.5 33t46 48.5t26 59.5l236 1098h-78l25 113h399l-25 -113h-77z" />
    <glyph glyph-name="Udieresis" unicode="&#xdc;" horiz-adv-x="1174" 
d="M1229 1612q-5 -23 -18.5 -42.5t-33 -34.5t-43.5 -23.5t-49 -8.5q-26 0 -46 9t-33 24t-18.5 34.5t-0.5 41.5q4 21 18 40.5t33.5 34.5t44 24t50.5 9q25 0 45 -8.5t33 -23t18 -34t0 -42.5zM918 1612q-5 -23 -18.5 -42.5t-33 -34.5t-44 -23.5t-50.5 -8.5q-24 0 -44 9t-33 24
t-18.5 34.5t-0.5 41.5q4 21 17.5 40.5t33 34.5t43.5 24t49 9q26 0 47 -8.5t34 -23t18 -34t0 -42.5zM1307 1329l-211 -993q-35 -151 -178 -262q-75 -56 -152 -83.5t-162 -27.5q-174 0 -268 111q-53 55 -68 121t0 141l211 993h-76l23 111h397l-22 -111h-78l-236 -1098
q-7 -32 1 -59.5t27.5 -48.5t48 -33t63.5 -12q34 0 67.5 12t60.5 33t46 48.5t26 59.5l236 1098h-78l25 111h399l-25 -111h-77z" />
    <glyph glyph-name="Yacute" unicode="&#xdd;" horiz-adv-x="1075" 
d="M932 1503h-131l217 252h176zM1251 1329l-413 -606l-131 -612h75l-22 -111h-395l22 111h78l125 585l-152 633h-84l25 111h416l-23 -111h-70l107 -450l301 450h-68l25 111h291l-23 -111h-84z" />
    <glyph glyph-name="Thorn" unicode="&#xde;" horiz-adv-x="1092" 
d="M954 838q7 32 0 60t-26 48.5t-47.5 32.5t-63.5 12h-168l-117 -549h168q36 0 70 12t61.5 32.5t47 48t26.5 59.5zM1167 698q-33 -151 -176 -258q-145 -110 -315 -110h-168l-47 -219h76l-23 -111h-395l22 111h78l258 1212h-78l23 111h397l-24 -111h-76l-47 -219h168
q85 0 151 -27.5t119 -83.5q97 -107 64 -258z" />
    <glyph glyph-name="germandbls" unicode="&#xdf;" horiz-adv-x="1110" 
d="M1061 336q-17 -75 -60.5 -139.5t-117.5 -120.5q-73 -56 -150 -84.5t-162 -28.5h-61l25 115h59q35 0 69 12t61.5 33t47 48.5t25.5 59.5l75 349q7 32 -0.5 60.5t-26.5 49.5t-47.5 33t-62.5 12h-61l24 113h62q34 0 67.5 12t61.5 33t47.5 49t26.5 59l45 209q6 32 -2 60.5
t-26.5 49.5t-47 33.5t-64.5 12.5q-34 0 -67 -12.5t-61 -33.5t-47.5 -49.5t-26.5 -60.5l-308 -1448h78l-22 -112h-398l23 112h78l284 1344q31 152 179 262q74 54 151 82.5t162 28.5t150.5 -28.5t113.5 -82.5q98 -110 68 -262q-11 -48 -34.5 -94t-57.5 -86.5t-76.5 -74.5
t-91.5 -58q38 -26 66.5 -61t45 -75.5t21 -86t-5.5 -93.5z" />
    <glyph glyph-name="agrave" unicode="&#xe0;" horiz-adv-x="1171" 
d="M856 1354l-143 227h164l96 -227h-117zM479 416h342l-51 569zM745 0l21 100h82l-19 213h-405l-107 -213h80l-20 -100h-314l21 100h113l612 1196h164l102 -1196h92l-20 -100h-402z" />
    <glyph glyph-name="aacute" unicode="&#xe1;" horiz-adv-x="1171" 
d="M950 1354h-123l199 227h164zM479 416h342l-51 569zM745 0l21 100h82l-19 213h-405l-107 -213h80l-20 -100h-314l21 100h113l612 1196h164l102 -1196h92l-20 -100h-402z" />
    <glyph glyph-name="acircumflex" unicode="&#xe2;" horiz-adv-x="1171" 
d="M979 1354l-55 102l-97 -102h-161l219 227h131l123 -227h-160zM479 416h342l-51 569zM745 0l21 100h82l-19 213h-405l-107 -213h80l-20 -100h-314l21 100h113l612 1196h164l102 -1196h92l-20 -100h-402z" />
    <glyph glyph-name="atilde" unicode="&#xe3;" horiz-adv-x="1171" 
d="M1243 1464q-56 -55 -120.5 -82.5t-141.5 -27.5q-35 0 -66.5 6.5t-62.5 21.5q-28 16 -47 23.5t-33 7.5q-31 0 -60.5 -14t-58.5 -45l-67 47q65 65 132.5 96t145.5 31q34 0 66 -7t63 -24q29 -14 47.5 -21.5t30.5 -7.5q29 0 60 16t59 44l55 -37zM479 414h342l-51 571zM745 0
l21 100h82l-19 213h-405l-107 -213h80l-20 -100h-314l21 100h113l612 1196h164l102 -1196h92l-20 -100h-402z" />
    <glyph glyph-name="adieresis" unicode="&#xe4;" horiz-adv-x="1171" 
d="M1176 1452q-5 -21 -17.5 -39t-30.5 -31t-40 -20.5t-44 -7.5q-48 0 -73 28t-17 70q5 19 17.5 36.5t30.5 30.5t39.5 21t45.5 8q22 0 40.5 -7.5t31 -20t17 -30t0.5 -38.5zM893 1452q-5 -21 -17 -39t-30 -31t-40 -20.5t-46 -7.5q-47 0 -71.5 28t-16.5 70q4 19 16 36.5
t30 30.5t40 21t45 8q48 0 73.5 -27t16.5 -69zM479 416h342l-51 569zM745 0l21 100h82l-19 213h-405l-107 -213h80l-20 -100h-314l21 100h113l612 1196h164l102 -1196h92l-20 -100h-402z" />
    <glyph glyph-name="aring" unicode="&#xe5;" horiz-adv-x="1171" 
d="M1014 1389q7 38 -17 65t-67 27q-20 0 -40 -7t-36.5 -19.5t-28.5 -29.5t-16 -36q-5 -19 0 -36t16.5 -29.5t28.5 -20t37 -7.5q21 0 41.5 7.5t37.5 20t28.5 29.5t15.5 36zM479 416h342l-51 569zM745 0l21 100h82l-19 213h-405l-107 -213h80l-20 -100h-314l21 100h113
l571 1117q-48 27 -67 70t-7 102q19 74 92 135q80 57 164 57q45 0 80.5 -15.5t61.5 -41.5q24 -29 34 -62t0 -73q-12 -59 -48 -102t-101 -70l98 -1117h92l-20 -100h-402z" />
    <glyph glyph-name="ae" unicode="&#xe6;" horiz-adv-x="1739" 
d="M481 412h348l-53 569zM756 0l22 100h78l-20 213h-406l-108 -213h79l-22 -100h-316l21 100h115l616 1190h166l70 -778l143 678h-72l21 100h755l-32 -164h-111l12 64h-352l-104 -496h172l14 64h113l-49 -226h-113l14 62h-172l-106 -494h352l12 64h111l-33 -164h-870z" />
    <glyph glyph-name="ccedilla" unicode="&#xe7;" horiz-adv-x="995" 
d="M774 0l12 61q-52 -40 -111 -63t-122 -29l-6 -10q56 -8 83.5 -45t16.5 -90q-6 -29 -23 -54t-41 -44t-54 -30t-62 -11h-129l45 100h104q19 0 32.5 11.5t17.5 27.5q6 35 -33 35h-111l47 116q-57 11 -103 36.5t-77 70.5q-37 49 -47 103.5t4 117.5l148 692q27 137 153 236
q133 98 285 98q75 0 133 -24t100 -70l15 61h112l-67 -319h-115q24 118 -33 184q-29 32 -71.5 50t-96.5 18q-32 0 -62 -11t-55.5 -29.5t-43 -44t-23.5 -54.5l-186 -883q-6 -28 0.5 -53t24 -43.5t43 -29.5t57.5 -11q52 0 101.5 16.5t92.5 48.5q42 34 71 81t42 106h112
l-67 -322h-113z" />
    <glyph glyph-name="egrave" unicode="&#xe8;" horiz-adv-x="1024" 
d="M776 1354l-139 227h158l96 -227h-115zM106 0l21 100h70l233 1096h-70l21 100h811l-35 -161h-110l12 61h-410l-106 -498h237l13 64h112l-47 -225h-113l13 61h-236l-106 -498h409l15 64h112l-37 -164h-809z" />
    <glyph glyph-name="eacute" unicode="&#xe9;" horiz-adv-x="1024" 
d="M866 1354h-116l196 227h156zM106 0l21 100h70l233 1096h-70l21 100h811l-35 -161h-110l12 61h-410l-106 -498h237l13 64h112l-47 -225h-113l13 61h-236l-106 -498h409l15 64h112l-37 -164h-809z" />
    <glyph glyph-name="ecircumflex" unicode="&#xea;" horiz-adv-x="1024" 
d="M897 1354l-53 102l-99 -102h-155l215 227h129l119 -227h-156zM106 0l21 100h70l233 1096h-70l21 100h811l-35 -161h-110l12 61h-410l-106 -498h237l13 64h112l-47 -225h-113l13 61h-236l-106 -498h409l15 64h112l-37 -164h-809z" />
    <glyph glyph-name="edieresis" unicode="&#xeb;" horiz-adv-x="1024" 
d="M1104 1452q-5 -21 -17.5 -39t-30.5 -31t-39.5 -20.5t-43.5 -7.5q-47 0 -70.5 28t-15.5 70q4 19 16 36.5t29 30.5t39 21t45 8q45 0 71 -27t17 -69zM823 1452q-5 -21 -17.5 -39t-30 -31t-38.5 -20.5t-43 -7.5q-46 0 -70.5 28t-15.5 70q4 19 16 36.5t29.5 30.5t39 21t44.5 8
q45 0 70.5 -27t15.5 -69zM106 0l21 100h70l233 1096h-70l21 100h811l-37 -163h-111l15 63h-410l-106 -498h237l13 64h112l-47 -225h-113l13 61h-236l-106 -498h409l13 64h112l-35 -164h-809z" />
    <glyph glyph-name="igrave" unicode="&#xec;" horiz-adv-x="500" 
d="M514 1354l-129 227h147l91 -227h-109zM102 0l21 100h65l234 1096h-66l23 100h334l-21 -100h-67l-232 -1096h66l-23 -100h-334z" />
    <glyph glyph-name="iacute" unicode="&#xed;" horiz-adv-x="500" 
d="M600 1354h-111l185 227h149zM102 0l21 100h65l234 1096h-66l23 100h334l-21 -100h-67l-232 -1096h66l-23 -100h-334z" />
    <glyph glyph-name="icircumflex" unicode="&#xee;" horiz-adv-x="504" 
d="M631 1354l-49 102l-95 -102h-149l209 227h123l110 -227h-149zM102 0l21 100h70l231 1096h-68l23 100h338l-23 -100h-63l-234 -1096h66l-23 -100h-338z" />
    <glyph glyph-name="idieresis" unicode="&#xef;" horiz-adv-x="512" 
d="M823 1452q-11 -43 -46.5 -70.5t-80.5 -27.5t-67.5 28t-14.5 70q4 19 16 36.5t28.5 30.5t37.5 21t43 8q45 0 69.5 -27t14.5 -69zM555 1452q-5 -21 -17 -39t-29 -31t-38 -20.5t-43 -7.5q-45 0 -67.5 28t-14.5 70q4 19 15.5 36.5t28.5 30.5t38 21t43 8q45 0 69 -27t15 -69z
M104 0l21 100h68l233 1096h-68l21 100h346l-20 -100h-70l-234 -1096h70l-20 -100h-347z" />
    <glyph glyph-name="eth" unicode="&#xf0;" horiz-adv-x="1024" 
d="M924 1053q6 27 -1 52t-24.5 44t-43.5 30t-58 11h-150l-106 -496h174l-21 -100h-172l-106 -494h149q32 0 63 11t56.5 30t43.5 44t24 53zM985 332q-27 -133 -160 -236q-127 -96 -280 -96h-439l21 100h70l106 494h-70l19 100h70l106 496h-70l21 100h440q78 0 136.5 -24.5
t103.5 -73.5q45 -51 60 -108t1 -126z" />
    <glyph glyph-name="ntilde" unicode="&#xf1;" horiz-adv-x="1055" 
d="M1174 1464q-108 -110 -261 -110q-35 0 -66 6.5t-63 21.5q-53 31 -75 31q-31 0 -60 -14t-57 -45l-70 47q62 65 129.5 96t143.5 31q37 0 68 -7t63 -24l48 -21.5t30 -7.5q30 0 59.5 16t58.5 44l52 -37v-27zM678 0l-166 1055l-203 -955h70l-21 -100h-249l22 100h68l233 1096
h-67l20 100h309l164 -1058l205 958h-70l21 100h254l-23 -100h-69l-234 -1096h70l-21 -100h-313z" />
    <glyph glyph-name="ograve" unicode="&#xf2;" horiz-adv-x="995" 
d="M760 1354l-139 227h157l101 -227h-119zM901 1090q6 29 -0.5 54.5t-23 44t-41.5 29.5t-56 11q-32 0 -62 -11t-55.5 -29.5t-43 -44t-23.5 -54.5l-186 -883q-6 -28 0.5 -53t24 -43.5t43 -29.5t57.5 -11q30 0 59 11t54 29.5t43 43.5t24 53zM952 301q-30 -135 -161 -235
q-129 -99 -279 -99q-152 0 -242 99q-83 101 -53 235l148 694q27 137 153 236q133 98 285 98q149 0 235 -98q44 -50 59.5 -108.5t0.5 -127.5z" />
    <glyph glyph-name="oacute" unicode="&#xf3;" horiz-adv-x="995" 
d="M850 1354h-113l191 227h155zM901 1090q6 29 -0.5 54.5t-23 44t-41.5 29.5t-56 11q-32 0 -62 -11t-55.5 -29.5t-43 -44t-23.5 -54.5l-186 -883q-6 -28 0.5 -53t24 -43.5t43 -29.5t57.5 -11q30 0 59 11t54 29.5t43 43.5t24 53zM952 301q-30 -135 -161 -235
q-129 -99 -279 -99q-152 0 -242 99q-83 101 -53 235l148 694q27 137 153 236q133 98 285 98q149 0 235 -98q44 -50 59.5 -108.5t0.5 -127.5z" />
    <glyph glyph-name="ocircumflex" unicode="&#xf4;" horiz-adv-x="995" 
d="M881 1354l-52 102l-98 -102h-156l213 227h130l118 -227h-155zM901 1090q6 29 -0.5 54.5t-23 44t-41.5 29.5t-56 11q-32 0 -62 -11t-55.5 -29.5t-43 -44t-23.5 -54.5l-186 -883q-6 -28 0.5 -53t24 -43.5t43 -29.5t57.5 -11q30 0 59 11t54 29.5t43 43.5t24 53zM952 301
q-30 -135 -161 -235q-129 -99 -279 -99q-152 0 -242 99q-83 101 -53 235l148 694q27 137 153 236q133 98 285 98q149 0 235 -98q44 -50 59.5 -108.5t0.5 -127.5z" />
    <glyph glyph-name="otilde" unicode="&#xf5;" horiz-adv-x="995" 
d="M1141 1464q-56 -54 -120.5 -82t-139.5 -28q-32 0 -64 6.5t-63 23.5q-53 29 -76 29q-29 0 -59 -14t-56 -45l-69 47q63 65 130 96t142 31q34 0 65.5 -6t65.5 -25q28 -14 45 -21.5t27 -7.5q31 0 61 16t57 44l54 -37v-27zM901 1087q6 29 -0.5 54.5t-23 44.5t-41.5 30t-56 11
q-32 0 -62 -11t-55.5 -30t-43 -44.5t-23.5 -54.5l-186 -880q-6 -28 0.5 -53t24 -43.5t43 -29.5t57.5 -11q30 0 59 11t54 29.5t43 43.5t24 53zM952 301q-30 -135 -161 -235q-129 -99 -279 -99q-152 0 -242 99q-83 101 -53 235l148 694q27 135 153 234q131 100 285 100
q150 0 235 -100q44 -50 59.5 -108t0.5 -126z" />
    <glyph glyph-name="odieresis" unicode="&#xf6;" horiz-adv-x="995" 
d="M795 1452q-4 -21 -16.5 -38.5t-30 -31t-39 -21t-43.5 -7.5q-23 0 -40.5 8t-29 21.5t-16 31t-0.5 37.5q4 19 16.5 36.5t30 30.5t38.5 21t44 8q22 0 40 -7.5t30 -20t16.5 -30t-0.5 -38.5zM1073 1452q-4 -21 -16 -38.5t-30 -31t-40 -21t-45 -7.5q-46 0 -69 29t-15 69
q4 19 15.5 36.5t29 30.5t38.5 21t44 8q47 0 72 -27t16 -69zM901 1087q6 29 -0.5 54.5t-23 44.5t-41.5 30t-56 11q-32 0 -62 -11t-55.5 -30t-43 -44.5t-23.5 -54.5l-186 -880q-6 -28 0.5 -53t24 -43.5t43 -29.5t57.5 -11q30 0 59 11t54 29.5t43 43.5t24 53zM952 301
q-30 -135 -161 -235q-129 -99 -279 -99q-152 0 -242 99q-83 101 -53 235l148 694q14 69 52 126.5t101 107.5q131 100 285 100q150 0 235 -100q44 -50 59.5 -107.5t0.5 -126.5z" />
    <glyph glyph-name="divide" unicode="&#xf7;" horiz-adv-x="897" 
d="M788 858q-5 -25 -20 -47.5t-36.5 -39t-48.5 -26.5t-56 -10t-51.5 10t-37 26.5t-20 39t-0.5 47.5t20 47.5t37 39.5t49 26.5t56 9.5q28 0 51 -9.5t37.5 -26.5t20 -39.5t-0.5 -47.5zM651 207q-5 -26 -20.5 -48t-37.5 -38t-49 -25.5t-55 -9.5q-29 0 -51.5 9.5t-37.5 25.5
t-20.5 38t-0.5 48q5 27 20.5 50t37.5 39.5t48.5 26t55.5 9.5t52 -9.5t37.5 -26t20.5 -39.5t0 -50zM264 463l29 143h614l-30 -143h-613z" />
    <glyph glyph-name="oslash" unicode="&#xf8;" horiz-adv-x="1004" 
d="M844 782l-406 -456l-26 -119q-6 -28 1 -53t24 -43.5t42.5 -29.5t57.5 -11t63 11t56 29.5t42.5 43.5t22.5 53zM477 508l404 457l28 120q6 28 -1 53t-24.5 44t-43.5 30t-58 11t-62 -11t-54.5 -30t-42 -44t-23.5 -53zM1110 1083q3 -24 2 -46.5t-4 -45.5l-147 -690
q-16 -69 -56 -126.5t-106 -108.5q-66 -50 -136 -73.5t-147 -23.5q-195 0 -270 137l-105 -114l-75 51l143 164q-3 25 -0.5 47t8.5 47l148 690q12 68 51.5 125.5t105.5 108.5q65 49 136.5 74.5t146.5 25.5q99 0 165.5 -36t106.5 -105l105 114l73 -49z" />
    <glyph glyph-name="ugrave" unicode="&#xf9;" horiz-adv-x="1055" 
d="M793 1354l-142 227h158l100 -227h-116zM1176 1196l-191 -895q-27 -134 -162 -235q-129 -99 -280 -99q-157 0 -242 99q-90 102 -59 235l190 895h-67l20 100h356l-20 -100h-72l-211 -989q-6 -28 1 -53t24 -43.5t43.5 -29.5t58.5 -11q31 0 61 11t55 29.5t43 43.5t24 53
l208 989h-69l22 100h359l-23 -100h-69z" />
    <glyph glyph-name="uacute" unicode="&#xfa;" horiz-adv-x="1055" 
d="M883 1354h-117l195 227h157zM1176 1196l-191 -895q-27 -134 -162 -235q-129 -99 -280 -99q-157 0 -242 99q-90 102 -59 235l190 895h-67l20 100h356l-20 -100h-72l-211 -989q-6 -28 1 -53t24 -43.5t43.5 -29.5t58.5 -11q31 0 61 11t55 29.5t43 43.5t24 53l208 989h-69
l22 100h359l-23 -100h-69z" />
    <glyph glyph-name="ucircumflex" unicode="&#xfb;" horiz-adv-x="1055" 
d="M913 1354l-53 102l-98 -102h-156l213 227h131l117 -227h-154zM1176 1196l-191 -895q-27 -134 -162 -235q-129 -99 -280 -99q-157 0 -242 99q-90 102 -59 235l190 895h-67l20 100h356l-20 -100h-72l-211 -989q-6 -28 1 -53t24 -43.5t43.5 -29.5t58.5 -11q31 0 61 11
t55 29.5t43 43.5t24 53l208 989h-69l22 100h359l-23 -100h-69z" />
    <glyph glyph-name="udieresis" unicode="&#xfc;" horiz-adv-x="1055" 
d="M1108 1452q-5 -21 -17.5 -38.5t-30.5 -31t-40 -21t-45 -7.5t-40.5 8t-29 21.5t-16 31t-0.5 37.5q4 19 16 36.5t29.5 30.5t39 21t44.5 8q46 0 72.5 -27t17.5 -69zM827 1452q-4 -21 -16.5 -38.5t-30.5 -31t-40.5 -21t-45.5 -7.5q-22 0 -40 8t-29.5 21.5t-16.5 31t0 37.5
q4 19 16 36.5t30 30.5t39.5 21t43.5 8q47 0 73.5 -27t16.5 -69zM1176 1196l-191 -895q-27 -134 -162 -235q-129 -99 -280 -99q-157 0 -242 99q-90 102 -59 235l190 895h-67l20 100h356l-20 -100h-72l-211 -989q-6 -28 1 -53t24 -43.5t43.5 -29.5t58.5 -11q31 0 61 11
t55 29.5t43 43.5t24 53l208 989h-69l22 100h359l-23 -100h-69z" />
    <glyph glyph-name="yacute" unicode="&#xfd;" horiz-adv-x="969" 
d="M838 1354h-119l196 227h158zM1124 1196l-372 -545l-115 -551h70l-23 -100h-358l22 100h70l110 527l-133 569h-78l21 100h377l-21 -100h-63l98 -405l268 405h-59l23 100h262l-23 -100h-76z" />
    <glyph glyph-name="thorn" unicode="&#xfe;" horiz-adv-x="981" 
d="M860 754q6 28 -0.5 53.5t-23.5 44.5t-43 30t-58 11h-151l-105 -496h150q32 0 62.5 11t56 30t43 44.5t24.5 54.5zM1051 629q-16 -68 -55 -126t-105 -108q-133 -98 -283 -98h-151l-41 -197h67l-20 -100h-357l21 100h70l231 1090h-70l21 100h358l-22 -100h-68l-41 -197h150
q77 0 136.5 -25t102.5 -73q90 -99 60 -233z" />
    <glyph glyph-name="ydieresis" unicode="&#xff;" horiz-adv-x="969" 
d="M1063 1452q-5 -21 -17 -39t-30 -31t-39.5 -20.5t-44.5 -7.5q-47 0 -70.5 28t-15.5 70q4 19 16 36.5t29 30.5t39 21t45 8q46 0 71.5 -27t16.5 -69zM780 1452q-9 -43 -45.5 -70.5t-83.5 -27.5q-46 0 -70.5 28t-15.5 70q4 19 16 36.5t29.5 30.5t39 21t44.5 8q47 0 72 -27
t14 -69zM1124 1196l-372 -545l-115 -551h70l-23 -100h-358l22 100h70l110 527l-133 569h-78l21 100h377l-21 -100h-63l98 -405l268 405h-59l23 100h262l-23 -100h-76z" />
    <glyph glyph-name="macron" unicode="&#xaf;" horiz-adv-x="967" 
d="M0 1325v109h967v-109h-967z" />
    <glyph glyph-name="macron" unicode="&#x2c9;" horiz-adv-x="967" 
d="M0 1325v109h967v-109h-967z" />
    <glyph glyph-name="caron" unicode="&#x2c7;" horiz-adv-x="727" 
d="M670 1016h-135l-132 215h164l60 -98l96 98h170z" />
    <glyph glyph-name="breve" unicode="&#x2d8;" horiz-adv-x="2107" 
d="M729 432v332h115v-332h-115zM1241 236h-430l39 88h358l-141 348h-2v90h98v260h-434v321h-201v-671h-262v-582h1034zM1878 215q0 133 -225 133h-193v88h211q31 0 57.5 8.5t49.5 22.5q26 19 39.5 40.5t13.5 49.5q0 63 -62 92q-23 13 -51.5 18t-62.5 5h-496l242 -584h252
q49 0 85.5 3.5t59.5 14.5q80 29 80 109zM1974 201q0 -97 -86 -152q-70 -49 -176 -49h-1536v760h260v583h-213v-106h-90l17 197h774v-91h-99v-233h430v-350h553v174h88v-262h-6q17 -22 27 -48.5t10 -60.5q0 -59 -26 -99.5t-78 -66.5q151 -47 151 -196zM1804 1169l-14 172
h-360v-231h192v96h88v-282h-88v96h-285v412h553v-263h-86z" />
    <glyph glyph-name="ring" unicode="&#x2da;" horiz-adv-x="727" 
d="M735 1135q7 38 -17 65t-69 27q-23 0 -44.5 -7t-39 -19.5t-29.5 -29.5t-16 -36q-9 -41 16.5 -68t71.5 -27q22 0 42.5 7t38 20t29.5 30.5t17 37.5zM852 1135q-9 -42 -34 -78t-61.5 -62.5t-80.5 -41.5t-90 -15q-48 0 -86 15t-62.5 41.5t-34 62.5t-0.5 78q9 40 33.5 76
t60.5 62.5t80.5 42t92.5 15.5q47 0 84.5 -15.5t62.5 -42t34.5 -62.5t0.5 -76z" />
    <glyph glyph-name="minus" unicode="&#x2212;" horiz-adv-x="897" 
d="M238 346l24 107h612l-22 -107h-614z" />
    <glyph glyph-name="nonbreakingspace" unicode="&#xa0;" horiz-adv-x="920" 
 />
    </font>
</defs>
</svg>
